<svg width="124" height="36" viewBox="0 0 124 36" fill="none" xmlns="http://www.w3.org/2000/svg">
<g clip-path="url(#clip0_2_1665)">
<mask id="mask0_2_1665" style="mask-type:luminance" maskUnits="userSpaceOnUse" x="0" y="6" width="25" height="24">
<path d="M24.1875 6H0.1875V30H24.1875V6Z" fill="white"/>
</mask>
<g mask="url(#mask0_2_1665)">
<path d="M23.9889 10.9845L19.2021 6.19851C18.9381 5.93383 18.5102 5.93383 18.2448 6.19851L2.45083 21.9925C2.18616 22.2573 2.18616 22.6845 2.45083 22.9506C2.93084 23.4298 0.3575 28.2565 0.1875 28.6146L1.56617 29.9998C1.9235 29.8299 6.75617 27.2565 7.23684 27.7365C7.5015 28.0012 7.92949 28.0012 8.19417 27.7365L23.9889 11.9418C24.2535 11.6778 24.2535 11.2492 23.9889 10.9845Z" fill="#CCCCCC"/>
<path d="M2.94727 21.4928L17.7926 6.64746L23.5392 12.3941L8.69393 27.2394L2.94727 21.4928Z" fill="#CCCCCC"/>
<path d="M15.8772 8.56426L16.8352 7.60693L22.5819 13.3536L21.624 14.3109L15.8772 8.56426ZM3.90527 20.5356L4.8626 19.5775L10.6093 25.3243L9.65126 26.2822L3.90527 20.5356Z" fill="black"/>
<path d="M18.1118 12.2345C17.0978 11.2205 14.1238 12.5518 11.4671 15.2072C8.81177 17.8631 7.4811 20.8377 8.49444 21.8517C9.50777 22.8657 12.4831 21.5345 15.1391 18.8792C17.7945 16.2231 19.1252 13.2478 18.1118 12.2345Z" fill="#CCCCCC"/>
</g>
<path d="M41.7556 25.7394C40.2356 25.7394 38.9315 25.4914 37.8436 24.9954C36.7715 24.4993 35.9315 23.7714 35.3236 22.8114C34.7315 21.8514 34.4036 20.6593 34.3396 19.2354C34.3235 18.5794 34.3156 17.8753 34.3156 17.1234C34.3156 16.3714 34.3235 15.6514 34.3396 14.9635C34.4036 13.5715 34.7396 12.3955 35.3476 11.4355C35.9555 10.4595 36.8036 9.72348 37.8916 9.22747C38.9795 8.71548 40.2676 8.45947 41.7556 8.45947C42.8116 8.45947 43.7876 8.59548 44.6835 8.86747C45.5795 9.12348 46.3636 9.50748 47.0356 10.0195C47.7076 10.5155 48.2276 11.1235 48.5955 11.8435C48.9795 12.5475 49.1795 13.3475 49.1956 14.2435C49.2116 14.3875 49.1636 14.5075 49.0516 14.6035C48.9556 14.6995 48.8355 14.7475 48.6915 14.7475H45.4516C45.2435 14.7475 45.0836 14.7075 44.9716 14.6275C44.8595 14.5315 44.7635 14.3635 44.6835 14.1235C44.4596 13.2755 44.0915 12.6995 43.5795 12.3955C43.0835 12.0755 42.4676 11.9155 41.7315 11.9155C40.8515 11.9155 40.1555 12.1635 39.6436 12.6595C39.1316 13.1395 38.8515 13.9475 38.8035 15.0834C38.7555 16.3954 38.7555 17.7394 38.8035 19.1154C38.8515 20.2513 39.1316 21.0673 39.6436 21.5634C40.1555 22.0434 40.8515 22.2834 41.7315 22.2834C42.4676 22.2834 43.0916 22.1233 43.6036 21.8034C44.1155 21.4834 44.4755 20.9074 44.6835 20.0754C44.7476 19.8354 44.8355 19.6753 44.9476 19.5954C45.0755 19.4994 45.2435 19.4514 45.4516 19.4514H48.6915C48.8355 19.4514 48.9556 19.4994 49.0516 19.5954C49.1636 19.6914 49.2116 19.8114 49.1956 19.9554C49.1795 20.8513 48.9795 21.6594 48.5955 22.3794C48.2276 23.0833 47.7076 23.6914 47.0356 24.2034C46.3636 24.6994 45.5795 25.0835 44.6835 25.3554C43.7876 25.6115 42.8116 25.7394 41.7556 25.7394ZM51.5751 25.4994C51.399 25.4994 51.2551 25.4434 51.1432 25.3314C51.0311 25.2193 50.9751 25.0753 50.9751 24.8994V13.6195C50.9751 13.4595 51.0311 13.3235 51.1432 13.2115C51.2551 13.0835 51.399 13.0195 51.5751 13.0195H54.3352C54.5111 13.0195 54.6551 13.0835 54.7671 13.2115C54.879 13.3235 54.9352 13.4595 54.9352 13.6195V14.5795C55.3672 14.0835 55.8791 13.6995 56.4711 13.4275C57.0791 13.1555 57.7591 13.0195 58.5112 13.0195H59.5672C59.727 13.0195 59.8631 13.0755 59.9751 13.1875C60.1031 13.2995 60.1672 13.4435 60.1672 13.6195V16.0914C60.1672 16.2514 60.1031 16.3954 59.9751 16.5234C59.8631 16.6354 59.727 16.6914 59.5672 16.6914H57.2392C56.5831 16.6914 56.0711 16.8754 55.7031 17.2434C55.3511 17.5954 55.1752 18.0994 55.1752 18.7554V24.8994C55.1752 25.0753 55.1111 25.2193 54.9832 25.3314C54.8711 25.4434 54.7271 25.4994 54.5512 25.4994H51.5751ZM83.7615 30.0594C83.6175 30.0594 83.4976 30.0114 83.4016 29.9154C83.3055 29.8194 83.2575 29.6994 83.2575 29.5554C83.2575 29.5234 83.2575 29.4754 83.2575 29.4114C83.2736 29.3634 83.2976 29.3074 83.3296 29.2434L85.2015 24.7314L80.5936 13.8355C80.5456 13.7235 80.5215 13.6275 80.5215 13.5475C80.5535 13.4035 80.6175 13.2835 80.7135 13.1875C80.8095 13.0755 80.9296 13.0195 81.0736 13.0195H83.8096C84.0176 13.0195 84.1695 13.0755 84.2655 13.1875C84.3776 13.2835 84.4496 13.3955 84.4816 13.5235L87.2415 20.5074L90.0495 13.5235C90.1136 13.3955 90.1936 13.2835 90.2896 13.1875C90.4016 13.0755 90.5615 13.0195 90.7696 13.0195H93.4576C93.6016 13.0195 93.7215 13.0755 93.8176 13.1875C93.9296 13.2835 93.9855 13.3955 93.9855 13.5235C93.9855 13.6035 93.9616 13.7075 93.9136 13.8355L87.1216 29.5554C87.0736 29.6833 86.9936 29.7954 86.8815 29.8914C86.7695 30.0035 86.6096 30.0594 86.4016 30.0594H83.7615ZM100.709 25.7394C99.3652 25.7394 98.2291 25.5234 97.3012 25.0914C96.3892 24.6594 95.685 24.0433 95.1891 23.2434C94.7091 22.4274 94.437 21.4594 94.3731 20.3394C94.3571 20.0194 94.3492 19.6594 94.3492 19.2594C94.3492 18.8434 94.3571 18.4834 94.3731 18.1794C94.437 17.0434 94.7251 16.0753 95.2372 15.2754C95.7491 14.4755 96.4612 13.8595 97.3731 13.4275C98.301 12.9955 99.4131 12.7795 100.709 12.7795C102.021 12.7795 103.133 12.9955 104.045 13.4275C104.973 13.8595 105.693 14.4755 106.205 15.2754C106.717 16.0753 107.005 17.0434 107.069 18.1794C107.085 18.4834 107.093 18.8434 107.093 19.2594C107.093 19.6594 107.085 20.0194 107.069 20.3394C107.005 21.4594 106.725 22.4274 106.229 23.2434C105.749 24.0433 105.045 24.6594 104.117 25.0914C103.205 25.5234 102.069 25.7394 100.709 25.7394ZM100.709 22.8114C101.429 22.8114 101.949 22.5954 102.269 22.1634C102.605 21.7314 102.797 21.0834 102.845 20.2194C102.861 19.9794 102.869 19.6594 102.869 19.2594C102.869 18.8593 102.861 18.5394 102.845 18.2994C102.797 17.4514 102.605 16.8114 102.269 16.3794C101.949 15.9313 101.429 15.7074 100.709 15.7074C100.005 15.7074 99.4852 15.9313 99.1492 16.3794C98.8132 16.8114 98.6291 17.4514 98.5972 18.2994C98.5811 18.5394 98.5732 18.8593 98.5732 19.2594C98.5732 19.6594 98.5811 19.9794 98.5972 20.2194C98.6291 21.0834 98.8132 21.7314 99.1492 22.1634C99.4852 22.5954 100.005 22.8114 100.709 22.8114ZM109.574 25.4994C109.398 25.4994 109.254 25.4434 109.142 25.3314C109.03 25.2193 108.974 25.0753 108.974 24.8994V13.6195C108.974 13.4435 109.03 13.2995 109.142 13.1875C109.254 13.0755 109.398 13.0195 109.574 13.0195H112.334C112.51 13.0195 112.654 13.0755 112.766 13.1875C112.878 13.2995 112.934 13.4435 112.934 13.6195V14.5315C113.35 14.0355 113.894 13.6195 114.566 13.2835C115.238 12.9475 116.03 12.7795 116.942 12.7795C117.87 12.7795 118.686 12.9875 119.39 13.4035C120.11 13.8195 120.67 14.4355 121.07 15.2514C121.485 16.0513 121.694 17.0353 121.694 18.2034V24.8994C121.694 25.0753 121.63 25.2193 121.502 25.3314C121.39 25.4434 121.254 25.4994 121.094 25.4994H118.07C117.91 25.4994 117.766 25.4434 117.638 25.3314C117.526 25.2193 117.47 25.0753 117.47 24.8994V18.3474C117.47 17.5954 117.285 17.0194 116.918 16.6194C116.566 16.2034 116.038 15.9954 115.334 15.9954C114.678 15.9954 114.15 16.2034 113.75 16.6194C113.366 17.0194 113.174 17.5954 113.174 18.3474V24.8994C113.174 25.0753 113.11 25.2193 112.982 25.3314C112.869 25.4434 112.734 25.4994 112.574 25.4994H109.574Z" fill="#F2F2F2"/>
<path d="M65.1376 25.7403C64.2736 25.7403 63.4976 25.5803 62.8096 25.2603C62.1376 24.9243 61.6016 24.4763 61.2016 23.9163C60.8015 23.3564 60.6016 22.7243 60.6016 22.0203C60.6016 20.8844 61.0655 19.9883 61.9936 19.3323C62.9216 18.6603 64.1536 18.2043 65.6896 17.9643L68.6896 17.5083V17.1723C68.6896 16.5963 68.5696 16.1564 68.3296 15.8523C68.0896 15.5483 67.6496 15.3963 67.0096 15.3963C66.5615 15.3963 66.1936 15.4844 65.9056 15.6603C65.6336 15.8363 65.4176 16.0763 65.2576 16.3803C65.1136 16.5884 64.9136 16.6923 64.6576 16.6923H61.9696C61.7936 16.6923 61.6576 16.6443 61.5616 16.5483C61.4656 16.4363 61.4255 16.3083 61.4416 16.1643C61.4416 15.8763 61.5455 15.5483 61.7536 15.1803C61.9775 14.7964 62.3135 14.4203 62.7616 14.0524C63.2096 13.6844 63.7856 13.3804 64.4896 13.1404C65.1935 12.9004 66.0416 12.7804 67.0336 12.7804C68.0735 12.7804 68.9615 12.9004 69.6976 13.1404C70.4336 13.3804 71.0255 13.7164 71.4736 14.1484C71.9375 14.5804 72.2816 15.0923 72.5056 15.6843C72.7295 16.2603 72.8416 16.9004 72.8416 17.6043V24.9003C72.8416 25.0763 72.7775 25.2203 72.6496 25.3323C72.5375 25.4444 72.4016 25.5003 72.2416 25.5003H69.4576C69.2816 25.5003 69.1376 25.4444 69.0256 25.3323C68.9135 25.2203 68.8576 25.0763 68.8576 24.9003V24.0603C68.6495 24.3644 68.3696 24.6443 68.0176 24.9003C67.6655 25.1564 67.2496 25.3563 66.7696 25.5003C66.3056 25.6604 65.7616 25.7403 65.1376 25.7403ZM66.2656 23.0043C66.7295 23.0043 67.1456 22.9083 67.5136 22.7163C67.8976 22.5083 68.1935 22.1963 68.4016 21.7803C68.6255 21.3483 68.7376 20.8124 68.7376 20.1723V19.8363L66.6976 20.1963C65.9456 20.3243 65.3936 20.5244 65.0416 20.7963C64.7056 21.0524 64.5376 21.3563 64.5376 21.7083C64.5376 21.9803 64.6175 22.2123 64.7776 22.4043C64.9376 22.5963 65.1455 22.7483 65.4016 22.8603C65.6576 22.9563 65.9456 23.0043 66.2656 23.0043ZM75.6698 25.5003C75.4939 25.5003 75.3499 25.4444 75.2378 25.3323C75.1258 25.2203 75.0698 25.0763 75.0698 24.9003V13.6204C75.0698 13.4444 75.1258 13.3004 75.2378 13.1884C75.3499 13.0763 75.4939 13.0204 75.6698 13.0204H78.5018C78.6619 13.0204 78.7978 13.0763 78.9098 13.1884C79.0378 13.3004 79.1018 13.4444 79.1018 13.6204V24.9003C79.1018 25.0763 79.0378 25.2203 78.9098 25.3323C78.7978 25.4444 78.6619 25.5003 78.5018 25.5003H75.6698ZM75.6458 11.2204C75.4699 11.2204 75.3259 11.1644 75.2138 11.0524C75.1018 10.9403 75.0458 10.7963 75.0458 10.6204V8.48435C75.0458 8.30836 75.1018 8.16436 75.2138 8.05235C75.3259 7.92436 75.4699 7.86035 75.6458 7.86035H78.5018C78.6778 7.86035 78.8218 7.92436 78.9338 8.05235C79.0618 8.16436 79.1258 8.30836 79.1258 8.48435V10.6204C79.1258 10.7963 79.0618 10.9403 78.9338 11.0524C78.8218 11.1644 78.6778 11.2204 78.5018 11.2204H75.6458Z" fill="#CCCCCC"/>
</g>
<defs>
<clipPath id="clip0_2_1665">
<rect width="123" height="36" fill="white" transform="translate(0.1875)"/>
</clipPath>
</defs>
</svg>
