<svg width="140" height="36" viewBox="0 0 140 36" fill="none" xmlns="http://www.w3.org/2000/svg">
<g clip-path="url(#clip0_2_1719)">
<path fill-rule="evenodd" clip-rule="evenodd" d="M31.9445 6.66887H28.8286L28.8293 29.697H31.9445V6.66887ZM37.7257 13.2521H34.6107V29.697H37.7257V13.2521ZM37.7257 6.49182H34.6107V10.6829H37.7257V6.49182ZM42.2974 13.2521H38.9497L43.6625 29.697H47.1388L51.8513 13.2521H48.5547L46.5851 21.0414C46.5339 21.2439 46.3492 22.0367 46.0316 23.4176L45.4005 26.0674C45.0276 24.3859 44.6372 22.7104 44.2295 21.0414L42.2974 13.2521ZM64.6111 18.3917C64.3537 17.2889 63.9756 16.3515 63.4774 15.5803C62.919 14.7148 62.2116 14.045 61.3533 13.5738C60.5035 13.0918 59.5591 12.8518 58.521 12.8518C56.5469 12.8518 54.9671 13.6221 53.7827 15.1633C53.1917 15.9596 52.7403 16.9004 52.4564 17.9264C52.1645 18.9855 52.0188 20.158 52.0188 21.4426C52.0188 24.1938 52.6069 26.3193 53.7837 27.8185C54.976 29.338 56.5645 30.0984 58.5465 30.0984C60.2461 30.0984 61.623 29.6224 62.6801 28.6692C63.7357 27.7162 64.4355 26.3035 64.7786 24.4299L61.7399 24.1407C61.5942 25.1577 61.2587 25.9181 60.7354 26.4206C60.2116 26.9136 59.4735 27.1604 58.521 27.1604C56.3411 27.1604 55.2254 25.6289 55.1738 22.5669H64.9844L64.9976 22.0212C64.9976 20.704 64.8685 19.4942 64.6111 18.3917ZM55.8684 17.2358C56.4182 16.2718 57.3026 15.7899 58.521 15.7899C59.1129 15.7899 59.6111 15.8912 60.0143 16.0948C60.4179 16.2984 60.7661 16.6248 61.0576 17.0745C61.2847 17.4234 61.4588 17.8207 61.5729 18.2468C61.7006 18.6917 61.7787 19.1563 61.8047 19.6277H55.1989C55.2765 18.6748 55.4998 17.8772 55.8684 17.2358ZM77.1007 13.8954C76.2168 13.1774 75.1952 12.8194 74.0369 12.8194H74.0351C73.1947 12.8194 72.4263 13.0328 71.7308 13.4617C71.0466 13.8778 70.4608 14.5084 70.0307 15.2921V6.66887H66.9158V29.697H70.0316V27.4328C70.4262 28.2464 70.986 28.9165 71.6536 29.3755C72.3492 29.8575 73.1171 30.0984 73.9579 30.0984C75.1257 30.0984 76.1596 29.7502 77.0628 29.0549C77.9633 28.3595 78.6626 27.363 79.1604 26.0674C79.6666 24.7613 79.9207 23.231 79.9207 21.4751C79.9207 19.7616 79.6709 18.2528 79.1741 16.9466C78.6844 15.6295 77.9931 14.6125 77.1007 13.8954ZM75.7739 25.8265C75.2766 26.7687 74.4268 27.239 73.2245 27.239C72.1424 27.239 71.3276 26.752 70.7792 25.7783C70.2294 24.8045 69.955 23.3804 69.955 21.5067C69.955 19.6969 70.1996 18.2844 70.6884 17.2671C71.1866 16.2394 72.0236 15.7258 73.1995 15.7258C74.4013 15.7258 75.2549 16.1971 75.7616 17.1383C76.2684 18.0698 76.521 19.5157 76.521 21.4751C76.521 23.4334 76.2726 24.8843 75.7739 25.8265ZM84.9812 6.66887H81.8654V29.697H84.9812V6.66887ZM90.0285 29.0704C91.0415 29.756 92.2429 30.0984 93.6339 30.0984C94.973 30.0984 96.1488 29.7395 97.1614 29.0233C98.1669 28.3261 98.9864 27.2761 99.5177 26.0036C100.075 24.6974 100.355 23.1875 100.355 21.4751C100.355 19.8266 100.08 18.3482 99.5305 17.0429C99.0034 15.7553 98.19 14.6846 97.1874 13.9595C96.1739 13.2206 94.9896 12.851 93.6339 12.851C92.2689 12.851 91.0756 13.2206 90.0545 13.9595C89.0542 14.6816 88.2408 15.7457 87.7109 17.0262C87.1705 18.3217 86.8999 19.8048 86.8999 21.4751C86.8999 23.2525 87.1658 24.788 87.6981 26.0832C88.2158 27.3491 89.0282 28.3903 90.0285 29.0704ZM96.2212 25.8432C95.6979 26.764 94.8348 27.2242 93.6339 27.2242C92.8182 27.2242 92.1615 27.0206 91.6642 26.6135C91.1655 26.1965 90.8049 25.5699 90.5821 24.7347C90.3587 23.8888 90.2475 22.8021 90.2475 21.4742C90.2475 19.4835 90.5096 18.0275 91.033 17.107C91.5653 16.1863 92.4321 15.7258 93.6339 15.7258C94.8268 15.7258 95.6851 16.1863 96.2089 17.107C96.7412 18.0275 97.0067 19.4835 97.0067 21.4751C97.0067 23.4659 96.745 24.9216 96.2212 25.8432ZM104.604 29.0704C105.608 29.756 106.805 30.0984 108.196 30.0984C109.278 30.0984 110.244 29.8634 111.093 29.3922C111.943 28.921 112.633 28.2629 113.166 27.417C113.7 26.5549 114.05 25.5379 114.183 24.4614L111.183 24.0766C110.977 25.1037 110.634 25.8698 110.153 26.3726C109.673 26.876 109.02 27.1279 108.196 27.1279C107.355 27.1279 106.694 26.9136 106.213 26.4846C105.733 26.0459 105.398 25.4203 105.209 24.606C105.02 23.7816 104.926 22.738 104.926 21.4751C104.926 20.2328 105.02 19.2051 105.209 18.3917C105.398 17.5673 105.728 16.9357 106.201 16.4962C106.681 16.0465 107.346 15.8224 108.196 15.8224C109.106 15.8224 109.78 16.1381 110.218 16.7696C110.664 17.3902 110.982 18.2409 111.17 19.3231L114.119 18.6641C113.836 16.9082 113.196 15.5007 112.2 14.4414C111.213 13.381 109.879 12.8518 108.196 12.8518C106.823 12.8518 105.634 13.2158 104.629 13.9436C103.638 14.6557 102.836 15.7171 102.325 16.9947C101.793 18.2903 101.526 19.7833 101.526 21.4751C101.526 23.2623 101.788 24.8045 102.312 26.1001C102.844 27.3953 103.608 28.386 104.604 29.0704ZM118.96 23.5947L120.415 21.8596L124.278 29.697H127.871L122.527 19.3702L127.703 13.2521H123.659L118.96 19.259V6.66887H115.844V29.697H118.96V23.5947ZM130.6 29.5041C131.477 29.9005 132.45 30.0981 133.523 30.0981C135.163 30.0981 136.514 29.691 137.579 28.8787C138.652 28.0641 139.189 26.7363 139.189 24.8951C139.189 23.6958 138.939 22.7536 138.442 22.0692C137.944 21.3726 137.351 20.8749 136.665 20.575C135.987 20.2651 135.064 19.9494 133.897 19.6277C133.218 19.4457 132.682 19.2746 132.288 19.1142C131.893 18.953 131.575 18.7443 131.335 18.4877C131.103 18.2299 130.987 17.8985 130.987 17.4922C130.987 16.8925 131.201 16.4379 131.63 16.1271C132.06 15.8162 132.592 15.6608 133.227 15.6608C134.068 15.6608 134.725 15.9127 135.198 16.4162C135.678 16.9199 135.935 17.6743 135.969 18.6805L138.853 18.0865C138.716 16.2451 138.137 14.9124 137.115 14.0871C136.102 13.2638 134.806 12.8507 133.227 12.8507C132.299 12.8507 131.443 13.0269 130.652 13.381C129.871 13.7232 129.24 14.2642 128.76 15.0039C128.278 15.7416 128.039 16.6729 128.039 17.7974C128.039 18.8359 128.244 19.6758 128.656 20.3181C129.075 20.9673 129.615 21.4797 130.227 21.8114C130.862 22.1545 131.66 22.4811 132.622 22.7911L133.421 23.0319C133.954 23.1896 134.482 23.3716 135.004 23.5778C135.364 23.7175 135.66 23.9103 135.892 24.1563C136.124 24.4022 136.24 24.7238 136.24 25.1202C136.24 25.8156 136.008 26.3515 135.544 26.7255C135.09 27.1011 134.424 27.288 133.55 27.288C132.656 27.288 131.944 27.0096 131.411 26.4531C130.88 25.8963 130.609 25.0937 130.6 24.0442L127.666 24.4612C127.699 25.725 127.979 26.7795 128.502 27.6254C129.035 28.4713 129.733 29.0969 130.6 29.5041Z" fill="white"/>
<path fill-rule="evenodd" clip-rule="evenodd" d="M15.0739 14.603H0.21875L4.62027 20.093V27.6416L15.0739 14.603Z" fill="white"/>
<path fill-rule="evenodd" clip-rule="evenodd" d="M7.37122 29.7008H22.2263L17.8248 24.211V16.6624L7.37122 29.7008Z" fill="white"/>
</g>
<defs>
<clipPath id="clip0_2_1719">
<rect width="139.11" height="36" fill="white" transform="translate(0.21875)"/>
</clipPath>
</defs>
</svg>
