<svg width="172" height="36" viewBox="0 0 172 36" fill="none" xmlns="http://www.w3.org/2000/svg">
<g clip-path="url(#clip0_2_1765)">
<mask id="mask0_2_1765" style="mask-type:luminance" maskUnits="userSpaceOnUse" x="0" y="0" width="172" height="36">
<path d="M171.62 0H0.671875V35.7366H171.62V0Z" fill="white"/>
</mask>
<g mask="url(#mask0_2_1765)">
<path d="M73.0742 18.758V12.9713C73.4232 12.9713 74.1313 12.9713 74.4347 12.9713C76.0374 12.9713 76.7721 13.6917 76.7721 14.7409C76.7721 16.9612 73.0742 18.758 73.0742 18.758ZM79.6248 14.4842C79.6248 11.5235 77.069 10.3042 73.7709 10.3042H70.2213V25.8621H73.0742V22.1373C73.524 21.7859 74.3752 21.2291 75.1903 20.6412L77.6415 25.8621H80.6422L77.4058 18.8157C78.6348 17.6103 79.6248 16.1557 79.6248 14.4842Z" fill="white"/>
<path d="M109.722 18.758V12.9713C110.071 12.9713 110.779 12.9713 111.082 12.9713C112.685 12.9713 113.42 13.6917 113.42 14.7409C113.42 16.9612 109.722 18.758 109.722 18.758ZM116.272 14.4842C116.272 11.5235 113.717 10.3042 110.419 10.3042H106.869V25.8621H109.722V22.1373C110.172 21.7859 111.023 21.2291 111.838 20.6412L114.289 25.8621H117.29L114.053 18.8157C115.283 17.6103 116.272 16.1557 116.272 14.4842Z" fill="white"/>
<path d="M137.89 18.758V12.9713C138.238 12.9713 138.946 12.9713 139.25 12.9713C140.852 12.9713 141.587 13.6917 141.587 14.7409C141.587 16.9612 137.89 18.758 137.89 18.758ZM144.44 14.4842C144.44 11.5235 141.884 10.3042 138.586 10.3042H135.036V25.8621H137.89V22.1373C138.339 21.7859 139.191 21.2291 140.005 20.6412L142.457 25.8621H145.458L142.221 18.8157C143.45 17.6103 144.44 16.1557 144.44 14.4842Z" fill="white"/>
<path d="M53.7785 25.8621L57.497 10.3042H54.6237L52.405 20.9724H52.3202L49.9752 10.3042H47.6082L45.2417 20.9724H45.1572L42.9806 10.3042H40.0432L43.7625 25.8621H46.4672L48.7492 15.6381H48.8127L51.0945 25.8621H53.7785Z" fill="white"/>
<path d="M61.2057 19.972L62.7041 13.8597H62.769L64.2903 19.972H61.2057ZM61.2057 10.3042L56.768 25.8621H59.7676L60.6769 22.3067H64.8188L65.726 25.8621H68.7076L64.3329 10.3042H61.2057Z" fill="white"/>
<path d="M90.073 19.7499L84.5375 10.3042H82.1493V25.8621H85.0019V16.4165H85.1073L90.644 25.8621H93.0313V10.3042H90.1792V19.7499L90.073 19.7499Z" fill="white"/>
<path d="M104.757 23.0839H98.8418V19.1945H103.279V16.6383H98.8418V13.0825H104.547V10.3042H95.9888V25.8621H104.757V23.0839Z" fill="white"/>
<path d="M151.623 12.7511C153.738 12.7511 154.356 15.4511 154.356 18.0854C154.356 20.7173 153.738 23.4193 151.623 23.4193C149.511 23.4193 148.893 20.7173 148.893 18.0854C148.893 15.4511 149.511 12.7511 151.623 12.7511ZM151.623 26.1974C155.426 26.1974 157.207 22.4112 157.207 18.0854C157.207 13.7641 155.426 9.97107 151.623 9.97107C147.82 9.97107 146.039 13.7641 146.039 18.0854C146.039 22.4112 147.82 26.1974 151.623 26.1974Z" fill="white"/>
<path d="M163.803 16.8614C162.64 16.0837 161.467 15.5283 161.467 14.1946C161.467 13.3051 162.218 12.6385 163.063 12.6385C164.014 12.6385 164.976 13.3051 165.292 13.861L167.089 12.0826C166.244 10.86 164.754 9.97107 162.957 9.97107C160.316 9.97107 158.614 11.6378 158.614 14.1946C158.614 16.9726 160.527 18.1951 162.069 19.1288C163.274 19.8619 164.448 20.4183 164.448 21.7515C164.448 22.8634 163.485 23.5299 162.429 23.5299C161.372 23.5299 160.304 22.8634 159.671 21.8627L157.98 23.6412C158.931 25.1967 160.844 26.1974 162.535 26.1974C165.176 26.1974 167.3 24.4189 167.3 21.7515C167.3 18.9735 165.324 17.8621 163.803 16.8614Z" fill="white"/>
<path d="M170.035 22.7517C169.084 22.7517 168.45 23.5295 168.45 24.4185C168.45 25.3076 169.084 26.0854 170.035 26.0854C170.986 26.0854 171.62 25.3076 171.62 24.4185C171.62 23.5295 170.986 22.7517 170.035 22.7517Z" fill="white"/>
<path d="M125.93 23.1066V19.8662C126.862 19.4755 127.893 18.9671 128.839 18.3416C129.282 18.653 130.265 19.4728 130.265 20.621C130.265 22.1397 128.943 23.0448 125.93 23.1066ZM125.93 12.9021C126.282 12.9021 126.951 12.9021 127.316 12.9021C128.625 12.9021 129.296 13.2632 129.296 14.0424C129.296 15.4448 126.496 16.6968 125.93 16.9354V12.9021ZM130.753 16.725C131.518 15.859 132.018 14.8566 132.018 13.7176C132.018 11.4903 130.21 10.3323 127.615 10.3042H123.076V25.8621H125.93C130.575 25.7185 132.969 23.7395 132.969 20.7364C132.969 18.509 131.186 17.0475 130.753 16.725Z" fill="white"/>
<path d="M32.8297 11.6489C32.6124 13.3172 31.8791 18.8197 28.131 24.205C24.3285 29.7659 19.3582 32.4586 17.8372 33.2781C16.3434 32.4586 11.3459 29.7659 7.54344 24.205C3.82247 18.8489 3.08914 13.3465 2.87186 11.6489L5.12617 10.3319V8.51724L7.38048 7.20016V5.38553C10.4768 3.77577 13.899 2.75138 17.8372 2.16602C21.7754 2.72211 25.1976 3.77577 28.2939 5.38553V7.20016L30.5482 8.51724V10.3319L32.8297 11.6489Z" fill="black"/>
<path d="M32.5853 9.0439V7.22927L30.3309 5.9122V4.00976L29.1902 3.42439C25.9038 1.7561 22.2915 0.643902 18.1088 0.0292683L17.8372 0L17.5656 0.0292683C13.4101 0.643902 9.77058 1.7561 6.51134 3.45366L5.37061 4.03902V5.94146L3.1163 7.22927V9.0439L0.671875 10.4488L0.861997 11.9415C1.51384 16.9756 3.22494 21.5415 5.94098 25.4927C8.68417 29.5024 12.378 32.7805 16.9409 35.239L17.8372 35.7366L18.7335 35.239C23.2964 32.7805 26.9902 29.5024 29.7334 25.4927C32.4494 21.5415 34.1605 16.9756 34.8124 11.9415L35.0025 10.4488L32.5853 9.0439ZM32.8297 11.6488C32.6124 13.3171 31.8791 18.8195 28.131 24.2049C24.3285 29.7659 19.3582 32.4585 17.8372 33.278C16.3434 32.4585 11.3459 29.7659 7.54344 24.2049C3.82247 18.8488 3.08914 13.3463 2.87186 11.6488L5.12617 10.3317V8.51707L7.38047 7.2V5.38537C10.4768 3.77561 13.899 2.75122 17.8372 2.16585C21.7754 2.72195 25.1976 3.77561 28.2939 5.38537V7.2L30.5482 8.51707V10.3317L32.8297 11.6488Z" fill="white"/>
<path d="M14.4965 6.55621L14.6051 21.3367L14.4965 21.3952C13.057 17.444 12.1878 12.5269 11.9162 7.5806C11.2101 7.93182 10.4496 8.34158 9.66194 8.86841C9.98786 13.3465 10.694 17.2684 11.9706 21.0147L11.2372 21.4538C9.30885 18.5562 8.05948 15.044 7.21751 10.8587C6.61998 11.444 6.04961 12.0879 5.45209 12.7904C6.56566 17.7952 8.35824 21.6001 10.9385 24.6733L12.9212 23.3855C13.8989 25.5806 15.257 27.7465 16.7779 29.4732V6.11719C16.0175 6.20499 15.257 6.35133 14.4965 6.55621ZM27.3161 14.1952C28.131 13.2294 28.2939 12.5269 28.2939 11.6782C28.2939 10.4782 27.3705 9.39524 26.0125 8.45865C25.1976 7.90255 23.9483 7.22938 22.1285 6.67329C21.0964 6.3806 19.9829 6.17572 18.8693 6.14646V29.5317C23.4322 27.0148 28.8371 20.0782 28.8643 16.5367C28.9186 15.4538 28.4026 14.7513 27.3161 14.1952ZM21.1508 8.92694C22.2643 8.92694 25.9038 10.1562 25.9038 11.7367C25.9038 12.2928 25.4421 13.1123 24.0026 13.9318L21.1508 15.5708V8.92694ZM23.9754 21.8928C23.3236 22.683 22.2915 23.9123 21.1508 24.8489V18.1465C21.1508 18.1465 25.2791 15.6587 25.4149 15.5416C26.6371 15.8928 26.5828 16.8587 26.5828 16.9465C26.5828 18.1757 25.4149 20.0782 23.9754 21.8928Z" fill="white"/>
</g>
</g>
<defs>
<clipPath id="clip0_2_1765">
<rect width="171.11" height="36" fill="white" transform="translate(0.671875)"/>
</clipPath>
</defs>
</svg>
