<svg width="140" height="36" viewBox="0 0 140 36" fill="none" xmlns="http://www.w3.org/2000/svg">
<path d="M42.9954 28.7929H46.1183V20.4264H51.4555C55.2881 20.4264 58.0987 18.6376 58.0987 14.3101C58.0987 9.98263 55.2881 8.16504 51.4555 8.16504H42.9954V28.7929ZM46.1183 17.6856V10.9058H51.3135C53.6699 10.9058 54.8623 11.9733 54.8623 14.3101C54.8623 16.6181 53.6699 17.6856 51.3135 17.6856H46.1183ZM63.5114 29.1968C65.8678 29.1968 67.5144 28.2447 68.4513 26.7157H68.508C68.6783 28.389 69.4165 28.9372 70.8076 28.9372C71.2618 28.9372 71.7445 28.8795 72.2271 28.7641V27.033C72.0567 27.0619 71.9716 27.0619 71.8864 27.0619C71.347 27.0619 71.2051 26.5137 71.2051 25.4463V18.6953C71.2051 14.8871 68.8203 13.6177 65.8394 13.6177C61.4106 13.6177 59.5936 15.8392 59.4517 18.6665H62.2907C62.4327 16.7047 63.1991 15.8969 65.7259 15.8969C67.8551 15.8969 68.4796 16.7913 68.4796 17.8587C68.4796 19.3012 67.0885 19.5897 64.8174 20.0225C61.2119 20.7148 58.7703 21.6958 58.7703 24.9847C58.7703 27.4947 60.6157 29.1968 63.5114 29.1968ZM61.6661 24.7828C61.6661 23.2537 62.7449 22.5324 65.3 22.0131C66.7763 21.6958 68.0254 21.3784 68.4796 20.9457V23.0518C68.4796 25.6194 66.6343 26.9176 64.136 26.9176C62.4042 26.9176 61.6661 26.1675 61.6661 24.7828ZM76.0207 33.9571C78.2635 33.9571 79.6546 32.7742 81.0457 29.1391L86.7801 14.0793H83.8563L79.8817 25.3309H79.8249L75.5949 14.0793H72.5572L78.4054 28.6486C77.8377 30.9567 76.5318 31.5337 75.4245 31.5337C74.9703 31.5337 74.7148 31.5048 74.2321 31.4471V33.7552C74.9703 33.8994 75.3962 33.9571 76.0207 33.9571ZM88.4805 28.7929H91.2627V8.16504H88.4805V28.7929ZM100.859 29.2257C105.372 29.2257 108.098 26.0233 108.098 21.4073C108.098 16.8201 105.372 13.6177 100.887 13.6177C96.345 13.6177 93.619 16.849 93.619 21.4362C93.619 26.0521 96.345 29.2257 100.859 29.2257ZM96.5152 21.4362C96.5152 18.3491 97.8778 15.9835 100.887 15.9835C103.84 15.9835 105.202 18.3491 105.202 21.4362C105.202 24.4942 103.84 26.8888 100.887 26.8888C97.8778 26.8888 96.5152 24.4942 96.5152 21.4362ZM114.469 29.1968C116.825 29.1968 118.472 28.2447 119.409 26.7157H119.466C119.636 28.389 120.374 28.9372 121.765 28.9372C122.219 28.9372 122.702 28.8795 123.185 28.7641V27.033C123.014 27.0619 122.929 27.0619 122.844 27.0619C122.304 27.0619 122.162 26.5137 122.162 25.4463V18.6953C122.162 14.8871 119.778 13.6177 116.797 13.6177C112.368 13.6177 110.551 15.8392 110.409 18.6665H113.248C113.39 16.7047 114.156 15.8969 116.684 15.8969C118.813 15.8969 119.437 16.7913 119.437 17.8587C119.437 19.3012 118.046 19.5897 115.775 20.0225C112.169 20.7148 109.728 21.6958 109.728 24.9847C109.728 27.4947 111.573 29.1968 114.469 29.1968ZM112.623 24.7828C112.623 23.2537 113.703 22.5324 116.258 22.0131C117.733 21.6958 118.983 21.3784 119.437 20.9457V23.0518C119.437 25.6194 117.592 26.9176 115.094 26.9176C113.361 26.9176 112.623 26.1675 112.623 24.7828ZM131.173 29.1968C133.444 29.1968 134.835 28.1005 135.63 27.0619H135.686V28.7929H138.469V8.16504H135.686V15.868H135.63C134.835 14.714 133.444 13.6465 131.173 13.6465C127.482 13.6465 124.672 16.5893 124.672 21.4362C124.672 26.283 127.482 29.1968 131.173 29.1968ZM127.567 21.4362C127.567 18.5511 128.902 16.0123 131.627 16.0123C134.125 16.0123 135.659 18.0895 135.659 21.4362C135.659 24.7539 134.125 26.86 131.627 26.86C128.902 26.86 127.567 24.3212 127.567 21.4362Z" fill="white"/>
<mask id="mask0_2_1723" style="mask-type:luminance" maskUnits="userSpaceOnUse" x="0" y="0" width="33" height="36">
<path d="M32.2022 0.802856H0.109375V35.9248H32.2022V0.802856Z" fill="white"/>
</mask>
<g mask="url(#mask0_2_1723)">
<mask id="mask1_2_1723" style="mask-type:luminance" maskUnits="userSpaceOnUse" x="4" y="0" width="24" height="33">
<path d="M27.3882 0.802856H4.92322V32.4126H27.3882V0.802856Z" fill="white"/>
</mask>
<g mask="url(#mask1_2_1723)">
<path d="M15.2254 2.87622L27.619 11.0292V26.5042L18.2866 32.4126V16.9376L5.87817 8.79538L15.2254 2.87622Z" fill="white"/>
<path d="M14.2753 31.5547V19.479L4.92322 25.3982L14.2753 31.5547Z" fill="white"/>
</g>
</g>
</svg>
