<svg width="137" height="36" viewBox="0 0 137 36" fill="none" xmlns="http://www.w3.org/2000/svg">
<g clip-path="url(#clip0_2_1676)">
<path d="M36.9547 8.55701V27.4491C36.9547 32.1713 33.126 36 28.4038 36H9.50251C4.78178 36 0.953125 32.1728 0.953125 27.4506V8.55396C0.953125 3.83018 4.7833 0 9.50708 0H28.3976C33.123 0.00152233 36.9547 3.8317 36.9547 8.55701Z" fill="white"/>
<path d="M28.7813 20.9256C28.588 23.5028 26.9971 25.8807 24.808 27.2492C24.0072 27.7501 23.1334 28.1231 22.2246 28.3727L21.7679 23.0812C22.4667 22.5651 22.966 21.7552 23.0162 20.889C24.9374 20.9012 26.8586 20.9118 28.7813 20.9256Z" fill="black"/>
<path d="M28.7873 15.3722C26.8631 15.3737 24.942 15.3738 23.0192 15.3738C23.0344 14.4193 22.5291 13.4891 21.7709 12.9122C21.0098 12.3336 20.0218 12.0932 19.0703 12.1662C18.6563 12.1967 18.2437 12.2895 17.8555 12.4372L14.957 8.07876C16.6803 7.35566 18.6258 7.12123 20.4982 7.30239C22.4225 7.48811 24.3452 8.10769 25.8325 9.34078C27.603 10.8114 28.6244 13.0766 28.7873 15.3722Z" fill="black"/>
<path d="M22.2246 28.3727C20.6475 28.8034 18.9622 28.8644 17.3471 28.5873C15.4914 28.2676 13.6874 27.5003 12.3006 26.2277C8.89664 23.0947 8.3821 17.3753 10.017 13.2361C10.591 11.7853 11.4815 10.4518 12.6857 9.44856C13.3693 8.87772 14.1365 8.42559 14.9555 8.08154L17.8541 12.44C17.4871 12.5816 17.1461 12.7749 16.8371 13.0154C15.3726 14.18 15.0134 16.2534 15.0301 18.1289C15.0453 19.9313 15.4183 21.9256 16.8539 23.0156C17.5008 23.5073 18.3092 23.7585 19.1222 23.8056C20.0203 23.8559 20.9489 23.6519 21.6903 23.1374C21.7161 23.1191 21.7436 23.0993 21.7679 23.0826L22.2246 28.3727Z" fill="black"/>
<path d="M61.0607 16.2536H58.9005C58.8168 15.7787 58.663 15.3616 58.4362 15.0008C58.2093 14.6399 57.9323 14.334 57.605 14.0813C57.2777 13.8301 56.9108 13.6398 56.5074 13.512C56.104 13.3841 55.6747 13.3201 55.2226 13.3201C54.4051 13.3201 53.6743 13.5318 53.0305 13.9534C52.3865 14.3766 51.878 14.9962 51.5066 15.8122C51.1352 16.6297 50.9494 17.6268 50.9494 18.8035C50.9494 19.991 51.1352 20.9927 51.5066 21.8102C51.878 22.6276 52.3865 23.2442 53.0334 23.6628C53.6789 24.0815 54.4066 24.29 55.2149 24.29C55.6625 24.29 56.0888 24.2276 56.4922 24.1013C56.8956 23.9749 57.2624 23.7892 57.5898 23.5426C57.9171 23.296 58.1957 22.993 58.4241 22.6337C58.6524 22.2745 58.8107 21.8634 58.899 21.3976L61.0592 21.4052C60.9434 22.1222 60.7212 22.7814 60.3908 23.3812C60.0605 23.9825 59.6388 24.5001 59.1243 24.934C58.6097 25.3679 58.0221 25.7043 57.3614 25.9418C56.7008 26.1792 55.9807 26.298 55.2013 26.298C53.9728 26.298 52.8797 25.998 51.9191 25.3967C50.9585 24.7955 50.2035 23.9353 49.6509 22.8149C49.0998 21.6944 48.8227 20.3578 48.8227 18.8051C48.8227 17.2477 49.0998 15.9096 49.6539 14.7907C50.2081 13.6718 50.9646 12.8132 51.9252 12.2118C52.8858 11.6105 53.9774 11.3107 55.1997 11.3107C55.9518 11.3107 56.6551 11.4203 57.3082 11.6425C57.9612 11.8633 58.5489 12.186 59.071 12.6107C59.5932 13.0354 60.024 13.553 60.3665 14.1635C60.7091 14.7724 60.9405 15.4697 61.0607 16.2536Z" fill="white"/>
<path d="M65.5271 19.6011V26.0969H63.4568V11.5084H65.4998V16.937H65.6307C65.8804 16.3479 66.2609 15.8805 66.7725 15.5335C67.2855 15.1864 67.9538 15.0128 68.7804 15.0128C69.5096 15.0128 70.1475 15.1666 70.6955 15.4756C71.242 15.7847 71.6668 16.2444 71.9697 16.8533C72.2726 17.4638 72.4233 18.2249 72.4233 19.1368V26.0969H70.3529V19.3941C70.3529 18.5919 70.152 17.9676 69.7501 17.5247C69.3483 17.0801 68.7896 16.8579 68.0741 16.8579C67.5854 16.8579 67.147 16.9645 66.7618 17.1791C66.3767 17.3923 66.0737 17.7058 65.8545 18.1153C65.6368 18.5264 65.5271 19.0226 65.5271 19.6011Z" fill="white"/>
<path d="M78.2889 26.3404C77.6145 26.3404 77.0055 26.211 76.4606 25.9523C75.9156 25.6934 75.4847 25.3174 75.1696 24.8227C74.853 24.3295 74.6947 23.7235 74.6947 23.0066C74.6947 22.39 74.8104 21.8816 75.0402 21.4827C75.2716 21.0838 75.5822 20.7687 75.975 20.5358C76.3677 20.3029 76.8061 20.1278 77.2902 20.009C77.7743 19.8903 78.2691 19.8005 78.7714 19.7381C79.4078 19.662 79.9254 19.5995 80.3227 19.5493C80.72 19.4991 81.0078 19.4169 81.1889 19.3042C81.3686 19.19 81.4584 19.0043 81.4584 18.7486V18.6983C81.4584 18.0757 81.2894 17.5947 80.9499 17.2521C80.6104 16.9096 80.1065 16.7391 79.4367 16.7391C78.7395 16.7391 78.1915 16.8974 77.7926 17.2125C77.3937 17.5292 77.1182 17.8793 76.9644 18.2629L75.0189 17.8078C75.2503 17.1425 75.5883 16.6051 76.0328 16.1941C76.4789 15.7831 76.9919 15.4847 77.5734 15.2959C78.1549 15.1087 78.7668 15.0143 79.4078 15.0143C79.8325 15.0143 80.2832 15.066 80.7612 15.1681C81.2391 15.2701 81.6867 15.4573 82.1039 15.7267C82.5209 15.9977 82.865 16.3829 83.1314 16.8838C83.3993 17.3845 83.5333 18.0346 83.5333 18.8323V26.0983H81.5117V24.6019H81.428C81.294 24.8775 81.093 25.1485 80.8251 25.4133C80.5571 25.6797 80.2131 25.9005 79.7929 26.0756C79.3773 26.2521 78.8749 26.3404 78.2889 26.3404ZM78.738 24.6309C79.3104 24.6309 79.8006 24.5151 80.2101 24.2822C80.6181 24.0493 80.9301 23.7448 81.1447 23.3673C81.3594 22.9898 81.4675 22.5848 81.4675 22.1525V20.7428C81.3929 20.8189 81.2513 20.8889 81.0412 20.9529C80.8312 21.0168 80.5921 21.0716 80.3242 21.1173C80.0563 21.163 79.796 21.2026 79.5417 21.2391C79.2875 21.2741 79.0759 21.3046 78.9039 21.3274C78.502 21.3792 78.1367 21.4675 77.8063 21.5908C77.476 21.7141 77.2126 21.8906 77.0163 22.122C76.8199 22.3519 76.7224 22.6579 76.7224 23.037C76.7224 23.5637 76.9111 23.9625 77.2902 24.2305C77.6693 24.4953 78.1519 24.6309 78.738 24.6309Z" fill="white"/>
<path d="M91.2573 15.1563V16.866H85.4484V15.1563H91.2573ZM87.0057 12.5349H89.0761V22.8853C89.0761 23.2978 89.1355 23.6083 89.2557 23.8154C89.376 24.0224 89.5312 24.1625 89.7231 24.2355C89.9149 24.3086 90.1234 24.3452 90.3503 24.3452C90.5162 24.3452 90.6623 24.333 90.7872 24.3102C90.912 24.2858 91.0098 24.2675 91.0782 24.2538L91.4526 26.0137C91.332 26.0608 91.1619 26.1095 90.9394 26.1597C90.7171 26.2101 90.4417 26.2374 90.1082 26.242C89.5633 26.2511 89.0563 26.1522 88.5844 25.9421C88.114 25.7335 87.7318 25.4108 87.4426 24.9739C87.1519 24.537 87.0057 23.9889 87.0057 23.3283V12.5349Z" fill="white"/>
<path d="M93.9312 26.0986V11.5101H96.0012V16.9311H96.1263C96.246 16.7028 96.4197 16.4394 96.6447 16.141C96.8715 15.8411 97.1856 15.5793 97.587 15.3539C97.9893 15.1287 98.5194 15.016 99.18 15.016C100.039 15.016 100.805 15.2398 101.479 15.6859C102.153 16.1319 102.683 16.7759 103.068 17.6162C103.453 18.4565 103.647 19.4688 103.647 20.6502C103.647 21.8315 103.454 22.8454 103.071 23.6888C102.687 24.5321 102.162 25.1806 101.492 25.6328C100.823 26.0864 100.058 26.3132 99.1998 26.3132C98.5527 26.3132 98.0262 26.2021 97.6176 25.9783C97.2099 25.7545 96.8904 25.4942 96.6591 25.1943C96.4278 24.8944 96.2505 24.6295 96.1263 24.3966H95.9526V26.0986H93.9312ZM95.9589 20.6273C95.9589 21.3961 96.0669 22.0705 96.2847 22.6505C96.5016 23.2305 96.8157 23.6826 97.227 24.0069C97.6374 24.3327 98.1396 24.4956 98.7372 24.4956C99.3546 24.4956 99.8721 24.3266 100.288 23.9856C100.704 23.6461 101.019 23.1848 101.234 22.6003C101.448 22.0157 101.556 21.358 101.556 20.6273C101.556 19.9058 101.451 19.2572 101.241 18.6833C101.031 18.1094 100.717 17.6557 100.299 17.3223C99.8802 16.9905 99.3609 16.823 98.7372 16.823C98.1369 16.823 97.6302 16.9829 97.2171 17.301C96.8049 17.6192 96.4917 18.0638 96.2793 18.6331C96.0651 19.2024 95.9589 19.8677 95.9589 20.6273Z" fill="white"/>
<path d="M109.059 26.3404C108.385 26.3404 107.776 26.211 107.231 25.9523C106.686 25.6934 106.256 25.3174 105.941 24.8227C105.624 24.3295 105.466 23.7235 105.466 23.0066C105.466 22.39 105.581 21.8816 105.811 21.4827C106.043 21.0838 106.353 20.7687 106.745 20.5358C107.139 20.3029 107.577 20.1278 108.061 20.009C108.545 19.8903 109.04 19.8005 109.543 19.7381C110.179 19.662 110.696 19.5995 111.093 19.5493C111.491 19.4991 111.778 19.4169 111.96 19.3042C112.139 19.19 112.229 19.0043 112.229 18.7486V18.6983C112.229 18.0757 112.06 17.5947 111.721 17.2521C111.381 16.9096 110.877 16.7391 110.208 16.7391C109.51 16.7391 108.962 16.8974 108.563 17.2125C108.165 17.5292 107.889 17.8793 107.735 18.2629L105.79 17.8078C106.021 17.1425 106.359 16.6051 106.804 16.1941C107.249 15.7831 107.762 15.4847 108.344 15.2959C108.926 15.1087 109.538 15.0143 110.179 15.0143C110.604 15.0143 111.054 15.066 111.532 15.1681C112.01 15.2701 112.458 15.4573 112.874 15.7267C113.292 15.9977 113.636 16.3829 113.904 16.8838C114.171 17.3845 114.305 18.0346 114.305 18.8323V26.0983H112.284V24.6019H112.2C112.066 24.8775 111.866 25.1485 111.597 25.4133C111.329 25.6797 110.985 25.9005 110.565 26.0756C110.149 26.2521 109.646 26.3404 109.059 26.3404ZM109.51 24.6309C110.083 24.6309 110.573 24.5151 110.983 24.2822C111.39 24.0493 111.703 23.7448 111.917 23.3673C112.132 22.9898 112.24 22.5848 112.24 22.1525V20.7428C112.165 20.8189 112.024 20.8889 111.813 20.9529C111.604 21.0168 111.364 21.0716 111.097 21.1173C110.829 21.163 110.569 21.2026 110.314 21.2391C110.06 21.2757 109.849 21.3046 109.678 21.3274C109.276 21.3792 108.911 21.4675 108.581 21.5908C108.25 21.7141 107.987 21.8906 107.79 22.122C107.593 22.3519 107.496 22.6579 107.496 23.037C107.496 23.5637 107.685 23.9625 108.064 24.2305C108.442 24.4953 108.924 24.6309 109.51 24.6309Z" fill="white"/>
<path d="M125.035 17.8276L123.158 18.17C123.079 17.9234 122.955 17.6875 122.788 17.4653C122.619 17.2414 122.392 17.0588 122.106 16.9172C121.819 16.7741 121.462 16.7041 121.033 16.7041C120.447 16.7041 119.956 16.838 119.565 17.106C119.173 17.3739 118.976 17.7195 118.976 18.1427C118.976 18.5081 119.107 18.8034 119.371 19.0256C119.633 19.2494 120.058 19.4321 120.644 19.5737L122.334 19.9726C123.313 20.2054 124.042 20.5631 124.522 21.0488C125.001 21.5329 125.242 22.1632 125.242 22.9364C125.242 23.5911 125.058 24.1741 124.69 24.6857C124.324 25.1956 123.814 25.596 123.161 25.8852C122.508 26.1745 121.751 26.3191 120.892 26.3191C119.702 26.3191 118.73 26.0573 117.977 25.532C117.225 25.0069 116.762 24.2609 116.592 23.2912L118.594 22.9776C118.719 23.515 118.975 23.9184 119.362 24.1924C119.751 24.4649 120.256 24.6019 120.879 24.6019C121.558 24.6019 122.1 24.4557 122.506 24.1635C122.913 23.8712 123.115 23.5134 123.115 23.0918C123.115 22.7492 122.992 22.463 122.746 22.2301C122.499 21.9972 122.121 21.8222 121.612 21.7034L119.812 21.2969C118.819 21.064 118.087 20.6941 117.614 20.1857C117.14 19.6772 116.905 19.0348 116.905 18.2554C116.905 17.6099 117.079 17.045 117.431 16.5595C117.781 16.0754 118.266 15.6963 118.885 15.4238C119.503 15.1514 120.212 15.0143 121.009 15.0143C122.16 15.0143 123.063 15.2701 123.724 15.78C124.386 16.29 124.822 16.9735 125.035 17.8276Z" fill="white"/>
<path d="M132.097 26.3189C131.05 26.3189 130.148 26.0874 129.393 25.6247C128.638 25.1619 128.057 24.5088 127.649 23.6654C127.241 22.8221 127.035 21.8341 127.035 20.6984C127.035 19.578 127.239 18.59 127.649 17.7344C128.057 16.8804 128.629 16.2121 129.366 15.7326C130.103 15.2531 130.964 15.0126 131.953 15.0126C132.552 15.0126 133.133 15.1145 133.697 15.3186C134.26 15.5225 134.766 15.8437 135.213 16.2807C135.661 16.7175 136.014 17.2838 136.273 17.9795C136.532 18.6753 136.661 19.5201 136.661 20.5112V21.2662H128.206V19.6709H134.632C134.632 19.1106 134.52 18.6128 134.3 18.179C134.078 17.7452 133.767 17.4011 133.368 17.1499C132.97 16.8987 132.502 16.7723 131.966 16.7723C131.385 16.7723 130.878 16.9185 130.447 17.2108C130.015 17.5031 129.683 17.8821 129.45 18.351C129.217 18.8184 129.1 19.3253 129.1 19.8718V21.1186C129.1 21.8493 129.226 22.472 129.477 22.985C129.729 23.498 130.08 23.8877 130.533 24.1572C130.987 24.4266 131.514 24.5591 132.12 24.5591C132.512 24.5591 132.871 24.5012 133.193 24.384C133.516 24.2683 133.796 24.0932 134.031 23.8603C134.267 23.6274 134.446 23.3396 134.571 22.9986L136.53 23.3625C136.373 23.9562 136.094 24.4754 135.689 24.9183C135.284 25.3628 134.78 25.7069 134.172 25.9505C133.565 26.1955 132.873 26.3189 132.097 26.3189Z" fill="white"/>
</g>
<defs>
<clipPath id="clip0_2_1676">
<rect width="135.9" height="36" fill="white" transform="translate(0.953125)"/>
</clipPath>
</defs>
</svg>
