<svg width="135" height="28" viewBox="0 0 135 28" fill="none" xmlns="http://www.w3.org/2000/svg">
<g clip-path="url(#clip0_2_1703)">
<mask id="mask0_2_1703" style="mask-type:luminance" maskUnits="userSpaceOnUse" x="0" y="0" width="135" height="28">
<path d="M134.152 0H0.3125V28H134.152V0Z" fill="white"/>
</mask>
<g mask="url(#mask0_2_1703)">
<path d="M37.2924 18.5359H37.6379L39.1928 20.0167C40.7479 21.4976 41.6363 22.1887 43.2653 22.1887C45.3138 22.1887 46.5231 21.1768 46.5231 19.3997C46.5231 18.0175 45.8814 17.2524 44.5239 16.5119C43.1911 15.7962 41.1673 15.2779 39.7852 14.414C38.4278 13.5502 37.7118 12.2667 37.7118 10.4404C37.7118 7.75005 39.7852 5.57812 43.2653 5.57812C44.2773 5.57812 45.215 5.75089 46.3997 5.75089H47.6832L48.8432 9.45308H48.4731L46.8933 7.94752C45.2892 6.41728 44.4747 6.09643 43.2407 6.09643C41.5624 6.09643 40.427 7.05901 40.427 8.56457C40.427 9.6999 41.0438 10.4897 42.2534 11.1068C43.4627 11.7485 45.5112 12.3162 46.9675 13.1553C48.4238 14.0191 49.2134 15.1791 49.2134 17.2277C49.2134 20.2635 46.844 22.7069 43.1665 22.7069C41.883 22.7069 40.7229 22.5342 39.4643 22.5342H38.4278L37.2924 18.5359Z" fill="white"/>
<path d="M62.6399 22.5947V22.7181H57.6545V22.5947L58.3702 21.484V14.8201C58.3702 13.3145 57.4322 12.7962 56.2722 12.7962C55.5565 12.7962 55.0136 12.9936 54.6681 13.2157V21.484L55.3837 22.5947V22.7181H50.4227V22.5947L51.1633 21.484V7.53903L50.2746 5.93475V5.81135L54.6681 5.07092V12.8702C55.4826 11.7595 56.84 10.6489 58.6418 10.6489C60.6903 10.6489 61.8996 12.0311 61.8996 14.0796V21.484L62.6399 22.5947Z" fill="white"/>
<path d="M74.4376 19.6578C73.8209 21.2867 72.2165 22.9651 69.3289 22.9651C65.8734 22.9651 63.6275 20.5216 63.6275 17.0662C63.6275 13.4133 66.0708 10.649 69.4028 10.649C72.192 10.649 74.0925 12.4261 74.3389 15.0917H66.6879C66.7125 18.1768 68.0453 20.4229 71.2295 20.4229C72.5868 20.4229 73.6235 20.0033 74.2402 19.485L74.4376 19.6578ZM66.6879 14.5981H70.6863C70.5631 12.2287 69.9953 11.192 68.761 11.192C67.5271 11.192 66.7618 12.1793 66.6879 14.5981Z" fill="white"/>
<path d="M87.3953 15.8075C87.3953 19.7071 84.4091 22.7182 81.0526 22.7182H79.4727V26.766L80.2623 27.8767V28.0001H75.2279V27.8767L75.9678 26.766V12.5742L75.2524 11.0193V10.8959H79.4727V12.8951C80.1888 11.735 81.3732 10.649 83.175 10.649C85.7174 10.649 87.3953 12.8951 87.3953 15.8075ZM84.0885 17.8313C84.0885 14.6968 83.1995 12.8457 80.9539 12.8457C80.2623 12.8457 79.7933 13.0185 79.4727 13.2406V20.9659L82.6318 22.0025C83.5208 21.4348 84.0885 20.028 84.0885 17.8313Z" fill="white"/>
<path d="M100.674 22.5947V22.7181H95.6882V22.5947L96.4043 21.484V14.8201C96.4043 13.3145 95.4663 12.7962 94.3064 12.7962C93.5903 12.7962 93.0471 12.9936 92.702 13.2157V21.484L93.4181 22.5947V22.7181H88.4565V22.5947L89.1971 21.484V7.53903L88.3088 5.93475V5.81135L92.702 5.07092V12.8702C93.5161 11.7595 94.8741 10.6489 96.6759 10.6489C98.7241 10.6489 99.9337 12.0311 99.9337 14.0796V21.484L100.674 22.5947Z" fill="white"/>
<path d="M112.472 19.6578C111.855 21.2867 110.25 22.9651 107.363 22.9651C103.908 22.9651 101.661 20.5216 101.661 17.0662C101.661 13.4133 104.105 10.649 107.437 10.649C110.226 10.649 112.126 12.4261 112.373 15.0917H104.722C104.747 18.1768 106.08 20.4229 109.263 20.4229C110.621 20.4229 111.657 20.0033 112.275 19.485L112.472 19.6578ZM104.722 14.5981H108.72C108.597 12.2287 108.029 11.192 106.795 11.192C105.561 11.192 104.796 12.1793 104.722 14.5981Z" fill="white"/>
<path d="M121.505 10.7974V14.4008H118.395C118.05 14.4008 117.754 14.4502 117.532 14.5489V21.4844L118.321 22.5951V22.7185H113.262V22.5951L114.002 21.4844V12.5745L113.311 11.0195V10.8961H117.532V14.1787C118.247 12.5497 119.457 10.7974 121.234 10.7974H121.505Z" fill="white"/>
<path d="M134.043 22.5947V22.7181H130.415L129.971 20.5214C129.28 21.9529 128.07 22.9649 126.343 22.9649C123.801 22.9649 121.999 20.793 121.999 17.7571C121.999 13.7587 125.01 10.9944 128.589 10.797L129.896 10.723V7.53903L129.033 5.93475V5.81135L133.427 5.07092V20.2993L134.043 22.5947ZM129.896 20.2746V12.6234L126.614 11.7349C125.775 12.4013 125.331 13.8328 125.331 15.7333C125.331 19.0159 126.343 20.7436 128.366 20.7436C128.984 20.7436 129.527 20.5708 129.896 20.2746Z" fill="white"/>
<path d="M18.9064 0L9.60947 9.29698H18.9064V18.5939L28.2034 9.29698V0H18.9064Z" fill="#CCCCCC"/>
<path d="M9.60941 27.8908L18.9064 18.5939H9.60941V9.29688L0.3125 18.5939V27.8908H9.60941Z" fill="white"/>
</g>
</g>
<defs>
<clipPath id="clip0_2_1703">
<rect width="134.4" height="28" fill="white" transform="translate(0.3125)"/>
</clipPath>
</defs>
</svg>
