<svg width="80" height="32" viewBox="0 0 80 32" fill="none" xmlns="http://www.w3.org/2000/svg">
<g clip-path="url(#clip0_2_1754)">
<mask id="mask0_2_1754" style="mask-type:luminance" maskUnits="userSpaceOnUse" x="0" y="0" width="80" height="32">
<path d="M79.6578 0H0.734375V32H79.6578V0Z" fill="white"/>
</mask>
<g mask="url(#mask0_2_1754)">
<path d="M68.4081 18.3737L61.6506 7.1698H66.8973L70.6168 14.7849L74.2976 7.1698H79.5828L72.7629 18.3737V24.5917C72.7619 24.9625 72.614 25.3181 72.3518 25.5804C72.0896 25.8427 71.7342 25.9905 71.3633 25.9916H68.4081V18.3737Z" fill="white"/>
<path d="M48.3071 7.16982H59.5893V9.55397C59.5893 9.92525 59.4419 10.2813 59.1794 10.5438C58.9168 10.8063 58.5609 10.9538 58.1897 10.9538H51.0627V14.8019H58.4589V16.9737C58.4579 17.3448 58.31 17.7001 58.0477 17.9625C57.7855 18.2248 57.4301 18.3726 57.0592 18.3737H51.0627V22.1995H59.8959V24.5917C59.8964 24.7757 59.8606 24.958 59.7905 25.128C59.7203 25.2981 59.6172 25.4526 59.4872 25.5827C59.357 25.7128 59.2025 25.8159 59.0325 25.8861C58.8624 25.9563 58.6802 25.9921 58.4963 25.9916H46.8995V8.56965C46.8995 8.38517 46.9359 8.20253 47.0068 8.03213C47.0776 7.86177 47.1814 7.70711 47.3122 7.57701C47.443 7.44692 47.5983 7.34397 47.769 7.27409C47.9398 7.20421 48.1226 7.16877 48.3071 7.16982Z" fill="white"/>
<path d="M33.8639 25.9918H31.1082V8.56995C31.1082 8.19867 31.2557 7.84259 31.5181 7.58006C31.7806 7.31753 32.1366 7.17004 32.5079 7.17004H43.9716V9.55419C43.9705 9.92515 43.8227 10.2806 43.5604 10.5429C43.2981 10.8052 42.9428 10.953 42.5719 10.954H35.2516V15.2013H42.4988V17.373C42.4988 17.7443 42.3513 18.1003 42.0888 18.3629C41.8264 18.6255 41.4702 18.7729 41.0991 18.7729H35.2516V24.5959C35.2516 24.9647 35.1057 25.3186 34.8456 25.5802C34.5856 25.8417 34.2326 25.9896 33.8639 25.9918Z" fill="white"/>
<path d="M16.8246 25.9254C17.0874 26.183 17.2962 26.4904 17.4387 26.8297C17.5813 27.1689 17.6546 27.5333 17.6546 27.9013C17.6546 28.2693 17.5813 28.6336 17.4387 28.9728C17.2962 29.3122 17.0874 29.6195 16.8246 29.8771L14.9201 31.7778L12.984 29.8376C11.9213 28.7725 11.2924 27.3503 11.2194 25.8475C11.1463 24.3446 11.6344 22.8681 12.5889 21.705L16.8246 25.9254Z" fill="white"/>
<path d="M16.876 11.8412C17.3828 12.3487 17.6674 13.0367 17.6674 13.7539C17.6674 14.4711 17.3828 15.159 16.876 15.6665L12.1347 20.4086C11.4577 21.0813 10.9212 21.8819 10.5563 22.7638C10.1913 23.6457 10.0053 24.5913 10.0089 25.5458C10.01 26.0437 10.0617 26.5402 10.1629 27.0277L8.29404 25.1071C7.15712 23.9683 6.51855 22.4249 6.51855 20.8156C6.51855 19.2063 7.15712 17.6627 8.29404 16.524L14.9399 9.88123L16.876 11.8412Z" fill="white"/>
<path d="M16.868 2.40083C17.3765 2.90986 17.6619 3.59991 17.6619 4.31938C17.6619 5.03886 17.3765 5.7289 16.868 6.23794L7.43649 15.6825C6.5827 16.5353 5.95495 17.5874 5.61 18.7438C5.26505 19.9002 5.21379 21.1244 5.46088 22.3056L3.55245 20.393C2.98879 19.8303 2.54161 19.1619 2.2365 18.4262C1.93141 17.6905 1.77435 16.9019 1.77435 16.1054C1.77435 15.3088 1.93141 14.5202 2.2365 13.7845C2.54161 13.0488 2.98879 12.3804 3.55245 11.8178L14.9161 0.452637L16.868 2.40083Z" fill="white"/>
</g>
</g>
<defs>
<clipPath id="clip0_2_1754">
<rect width="79.19" height="32" fill="white" transform="translate(0.734375)"/>
</clipPath>
</defs>
</svg>
