<svg width="111" height="24" viewBox="0 0 111 24" fill="none" xmlns="http://www.w3.org/2000/svg">
<mask id="mask0_2_1735" style="mask-type:luminance" maskUnits="userSpaceOnUse" x="0" y="0" width="110" height="24">
<path d="M109.588 0H0.953125V24H109.588V0Z" fill="white"/>
</mask>
<g mask="url(#mask0_2_1735)">
<path d="M31.8309 3.06084H36.6879L40.808 13.1085H40.9982L45.1183 3.06084H49.9753V19.2893H46.1562V9.32081H46.0216L42.1233 19.1862H39.6829L35.7846 9.26537H35.65V19.2893H31.8309V3.06084ZM51.529 19.2893V7.11791H55.4039V19.2893H51.529ZM53.4701 5.69954C52.9262 5.69954 52.4587 5.51994 52.0679 5.16073C51.6772 4.7962 51.4814 4.35774 51.4814 3.84532C51.4814 3.33818 51.6772 2.905 52.0679 2.54578C52.4587 2.18127 52.9262 1.99902 53.4701 1.99902C54.0195 1.99902 54.4871 2.18127 54.8728 2.54578C55.2635 2.905 55.4589 3.33818 55.4589 3.84532C55.4589 4.35774 55.2635 4.7962 54.8728 5.16073C54.4871 5.51994 54.0195 5.69954 53.4701 5.69954ZM60.852 12.3478V19.2893H56.9771V7.11791H60.6615V9.35248H60.7964C61.0658 8.60765 61.5254 8.02391 62.1745 7.60127C62.8249 7.17341 63.5982 6.95945 64.4963 6.95945C65.3518 6.95945 66.094 7.15229 66.7227 7.53791C67.3569 7.91825 67.8482 8.45183 68.1968 9.13859C68.5508 9.82007 68.7253 10.6177 68.7199 11.5316V19.2893H64.8455V12.2924C64.8503 11.6161 64.6787 11.0879 64.3301 10.7075C63.9864 10.3272 63.5088 10.137 62.8957 10.137C62.4889 10.137 62.1301 10.2268 61.8182 10.4064C61.5116 10.5807 61.2746 10.8317 61.1054 11.1592C60.9417 11.4867 60.8569 11.8829 60.852 12.3478ZM77.0958 7.11791V9.97061H69.4177V7.11791H77.0958ZM71.0261 4.2019H74.9006V15.4619C74.9006 15.6996 74.9378 15.8925 75.0116 16.0404C75.0908 16.183 75.2047 16.286 75.3523 16.3494C75.4999 16.4075 75.6769 16.4366 75.8833 16.4366C76.0309 16.4366 76.1869 16.4234 76.3506 16.397C76.5192 16.3653 76.6464 16.3389 76.731 16.3178L77.3172 19.1149C77.1324 19.1678 76.8708 19.2338 76.533 19.313C76.2001 19.3922 75.8017 19.4424 75.3361 19.4636C74.4278 19.5058 73.6485 19.4001 72.9993 19.1466C72.3544 18.8877 71.8606 18.4863 71.5175 17.9421C71.1797 17.3981 71.0159 16.7139 71.0261 15.8898V4.2019ZM82.3153 3.06084V19.2893H78.4414V3.06084H82.3153ZM83.8895 19.2893V7.11791H87.7634V19.2893H83.8895ZM85.8304 5.69954C85.2868 5.69954 84.8189 5.51994 84.4283 5.16073C84.0371 4.7962 83.8416 4.35774 83.8416 3.84532C83.8416 3.33818 84.0371 2.905 84.4283 2.54578C84.8189 2.18127 85.2868 1.99902 85.8304 1.99902C86.3799 1.99902 86.8473 2.18127 87.233 2.54578C87.6236 2.905 87.8192 3.33818 87.8192 3.84532C87.8192 4.35774 87.6236 4.7962 87.233 5.16073C86.8473 5.51994 86.3799 5.69954 85.8304 5.69954ZM96.2544 7.11791V9.97061H88.4263V7.11791H96.2544ZM90.0582 19.2893V6.49985C90.0582 5.55956 90.2352 4.78035 90.5891 4.16228C90.9431 3.53892 91.4351 3.07405 92.0632 2.76765C92.6919 2.45597 93.4179 2.30013 94.2422 2.30013C94.781 2.30013 95.2879 2.3424 95.7631 2.42692C96.2442 2.50616 96.6006 2.57748 96.8328 2.64087L96.2148 5.47769C96.072 5.43014 95.898 5.39051 95.6917 5.35883C95.4913 5.32709 95.3011 5.31128 95.1217 5.31128C94.667 5.31128 94.3556 5.41164 94.1864 5.61237C94.0172 5.81314 93.9332 6.08783 93.9332 6.43649V19.2893H90.0582ZM99.5949 23.8535C99.1306 23.8535 98.6914 23.8165 98.2798 23.7425C97.8683 23.6738 97.5143 23.5814 97.2179 23.4652L98.074 20.6522C98.4544 20.779 98.7976 20.8529 99.1036 20.874C99.4155 20.8952 99.6825 20.845 99.9039 20.7235C100.131 20.6073 100.305 20.3986 100.427 20.0975L100.578 19.733L96.2514 7.11791H100.308L102.551 15.8027H102.677L104.951 7.11791H109.031L104.444 20.4541C104.222 21.1197 103.908 21.7061 103.501 22.2132C103.1 22.7256 102.58 23.1271 101.94 23.4176C101.307 23.7082 100.525 23.8535 99.5949 23.8535Z" fill="white"/>
<mask id="mask1_2_1735" style="mask-type:luminance" maskUnits="userSpaceOnUse" x="1" y="0" width="24" height="24">
<path d="M24.6038 0.396729H1.30017V23.7025H24.6038V0.396729Z" fill="white"/>
</mask>
<g mask="url(#mask1_2_1735)">
<path d="M7.44006 8.90046C7.45638 6.68106 8.33638 4.55532 9.89366 2.974H9.89084L3.87875 8.98656H3.88162C3.85924 9.0042 3.83814 9.02334 3.81849 9.04398C2.35637 10.5043 1.46991 12.443 1.32178 14.5043C1.17366 16.5656 1.77381 18.6112 3.0121 20.2656L9.08439 14.1928L9.14751 14.1325C8.01577 12.6251 7.41534 10.7853 7.44006 8.90046Z" fill="#8F8F8F"/>
<path d="M22.0382 15.1226C20.8876 16.2503 19.4432 17.0321 17.8698 17.3787C16.2964 17.7252 14.6572 17.6227 13.1393 17.0828C12.3299 16.7954 11.5693 16.386 10.8837 15.8688L10.8206 15.9319L4.74829 22.0019C6.40325 23.2372 8.44745 23.8355 10.5072 23.6874C12.5671 23.5394 14.5047 22.6548 15.966 21.1954L16.0262 21.1352L22.0382 15.1226Z" fill="#8F8F8F"/>
<path d="M24.6152 8.98653V0.793429C24.6152 0.574339 24.4377 0.396733 24.2186 0.396733H16.0263C14.8982 0.395602 13.7811 0.617377 12.739 1.04932C11.6969 1.48126 10.7505 2.11484 9.95397 2.9137L9.89368 2.97397C8.84383 4.0399 8.09264 5.36319 7.71558 6.81111C8.39819 6.63435 9.09965 6.54087 9.8047 6.53277C11.6894 6.51051 13.5286 7.11189 15.0362 8.24325C16.3911 9.25377 17.4166 10.6428 17.9834 12.2354C18.561 13.863 18.637 15.6267 18.2015 17.298C19.6495 16.9215 20.9729 16.1702 22.0383 15.1197L22.0985 15.0623C22.8977 14.2653 23.5314 13.3184 23.9634 12.2756C24.3953 11.233 24.6168 10.1152 24.6152 8.98653Z" fill="white"/>
</g>
</g>
</svg>
