<svg width="127" height="32" viewBox="0 0 127 32" fill="none" xmlns="http://www.w3.org/2000/svg">
<g clip-path="url(#clip0_2_1748)">
<mask id="mask0_2_1748" style="mask-type:luminance" maskUnits="userSpaceOnUse" x="0" y="0" width="127" height="32">
<path d="M126.16 0H0.25V32H126.16V0Z" fill="white"/>
</mask>
<g mask="url(#mask0_2_1748)">
<path d="M69.7373 24.3076C70.4388 24.3051 71.1107 24.0244 71.6056 23.5271C72.1004 23.0299 72.3778 22.3566 72.377 21.6551C71.1437 22.2365 69.7549 22.4017 68.4195 22.1261C67.0841 21.8503 65.8744 21.1485 64.9721 20.1262C64.0698 19.1039 63.5239 17.8163 63.4163 16.457C63.3087 15.0977 63.6453 13.7402 64.3756 12.5887C65.1057 11.4372 66.1901 10.5538 67.4654 10.0715C68.7409 9.58918 70.1383 9.5339 71.4477 9.91405C72.7573 10.2942 73.9079 11.0893 74.7267 12.1796C75.5455 13.2699 75.9882 14.5965 75.9883 15.9601V21.6646C75.99 23.3282 75.3319 24.9246 74.1582 26.1037C72.9846 27.2827 71.3913 27.9481 69.7277 27.9541L69.7373 24.3076ZM67.0942 15.9505C67.0974 16.4717 67.2549 16.9804 67.5467 17.4124C67.8386 17.8443 68.2517 18.1801 68.7342 18.3776C69.2166 18.575 69.7466 18.6252 70.2576 18.5218C70.7685 18.4185 71.2374 18.1661 71.6051 17.7966C71.9728 17.4271 72.2229 16.957 72.3238 16.4456C72.4247 15.9342 72.372 15.4044 72.1722 14.9229C71.9725 14.4414 71.6346 14.0298 71.2013 13.7401C70.7679 13.4503 70.2586 13.2953 69.7373 13.2947C69.0349 13.2973 68.3621 13.5783 67.8666 14.0761C67.3712 14.5741 67.0934 15.2481 67.0942 15.9505ZM89.1268 15.9505C89.1268 15.1283 89.2884 14.3142 89.6028 13.5546C89.918 12.795 90.3788 12.1049 90.9604 11.5235C91.5412 10.9421 92.2316 10.481 92.9916 10.1664C93.7508 9.85174 94.5652 9.68981 95.3868 9.68981C96.2092 9.68981 97.0236 9.85174 97.7828 10.1664C98.5428 10.481 99.2324 10.9421 99.814 11.5235C100.396 12.1049 100.856 12.795 101.172 13.5546C101.486 14.3142 101.648 15.1283 101.648 15.9505V22.1121H98.0396V15.9601C98.0372 15.4387 97.8804 14.9297 97.5892 14.4973C97.2972 14.0649 96.8844 13.7286 96.402 13.5307C95.9196 13.3328 95.3892 13.2821 94.878 13.3851C94.3668 13.4881 93.898 13.7403 93.53 14.1097C93.162 14.479 92.9116 14.9491 92.81 15.4606C92.7092 15.9721 92.762 16.5021 92.9612 16.9837C93.1612 17.4654 93.4988 17.8772 93.9324 18.1671C94.366 18.4569 94.8756 18.612 95.3964 18.6126C95.9756 18.6123 96.538 18.4189 96.9948 18.0629V22.0385C96.474 22.1792 95.9364 22.2501 95.3964 22.2495C93.734 22.2427 92.1412 21.5769 90.9684 20.398C89.7956 19.219 89.1372 17.6231 89.1396 15.9601L89.1268 15.9505ZM37.7596 15.9505C37.7596 14.2901 38.4192 12.6977 39.5933 11.5235C40.7674 10.3494 42.3598 9.68981 44.0202 9.68981C45.6807 9.68981 47.2731 10.3494 48.4472 11.5235C49.6213 12.6977 50.2809 14.2901 50.2809 15.9505V22.1121H46.6633V15.9601C46.6607 15.4385 46.5037 14.9294 46.2122 14.497C45.9206 14.0645 45.5074 13.7282 45.0249 13.5304C44.5422 13.3325 44.0119 13.2821 43.5007 13.3853C42.9894 13.4887 42.5203 13.7411 42.1524 14.1108C41.7845 14.4805 41.5343 14.9509 41.4335 15.4625C41.3327 15.9742 41.3857 16.5044 41.5859 16.986C41.7861 17.4676 42.1244 17.8791 42.5582 18.1686C42.9921 18.4581 43.5019 18.6126 44.0234 18.6126C44.6024 18.6118 45.1645 18.4185 45.6214 18.0629V22.0385C45.1003 22.1789 44.563 22.2498 44.0234 22.2495C42.3601 22.2427 40.7673 21.577 39.5938 20.3981C38.4204 19.2193 37.762 17.6234 37.7628 15.9601L37.7596 15.9505ZM117.122 22.1185V14.9981C117.122 14.7765 117.079 14.5571 116.994 14.3524C116.909 14.1477 116.784 13.9617 116.628 13.8049C116.471 13.6482 116.285 13.524 116.08 13.4392C115.876 13.3544 115.656 13.3107 115.435 13.3107C115.213 13.3107 114.994 13.3544 114.789 13.4392C114.584 13.524 114.398 13.6482 114.241 13.8049C114.084 13.9617 113.96 14.1477 113.876 14.3524C113.791 14.5571 113.748 14.7765 113.748 14.9981V22.1281H110.129V14.9981C110.129 14.7765 110.086 14.5571 110.001 14.3524C109.916 14.1477 109.792 13.9617 109.636 13.8049C109.479 13.6482 109.292 13.524 109.088 13.4392C108.883 13.3544 108.664 13.3107 108.442 13.3107C108.22 13.3107 108.001 13.3544 107.796 13.4392C107.592 13.524 107.406 13.6482 107.249 13.8049C107.092 13.9617 106.968 14.1477 106.883 14.3524C106.798 14.5571 106.755 14.7765 106.755 14.9981V22.1281H103.137V14.9981C103.136 13.588 103.695 12.2349 104.689 11.2357C105.684 10.2365 107.035 9.67253 108.445 9.66741C109.734 9.66702 110.978 10.1389 111.941 10.9937C112.708 10.3222 113.653 9.8863 114.662 9.7383C115.671 9.59021 116.7 9.73629 117.628 10.159C118.556 10.5817 119.342 11.2632 119.892 12.1215C120.443 12.9798 120.733 13.9786 120.73 14.9981V22.1281L117.122 22.1185ZM84.2652 22.1185V14.9981C84.2652 14.7765 84.222 14.5571 84.1372 14.3524C84.0524 14.1477 83.9284 13.9617 83.7716 13.8049C83.6148 13.6482 83.4284 13.524 83.2236 13.4392C83.0188 13.3544 82.7996 13.3107 82.578 13.3107C82.3564 13.3107 82.1372 13.3544 81.9324 13.4392C81.7276 13.524 81.542 13.6482 81.3852 13.8049C81.2284 13.9617 81.1044 14.1477 81.0196 14.3524C80.9348 14.5571 80.8908 14.7765 80.8908 14.9981V22.1281H77.2666V6.22871H80.8876V9.94549C81.4308 9.76101 82.0012 9.6671 82.5748 9.66741C83.9844 9.67334 85.334 10.2377 86.3284 11.2369C87.3228 12.236 87.8812 13.5885 87.8804 14.9981V22.1281L84.2652 22.1185ZM58.7435 22.1185V14.9981C58.7534 14.7705 58.7172 14.5433 58.637 14.3301C58.5567 14.117 58.4341 13.9223 58.2766 13.7577C58.119 13.5933 57.9298 13.4623 57.7204 13.3729C57.5109 13.2834 57.2855 13.2373 57.0577 13.2373C56.83 13.2373 56.6045 13.2834 56.395 13.3729C56.1856 13.4623 55.9964 13.5933 55.8389 13.7577C55.6813 13.9223 55.5588 14.117 55.4785 14.3301C55.3982 14.5433 55.362 14.7705 55.3719 14.9981V22.1281H51.7574V14.9981C51.7401 14.2903 51.8645 13.5861 52.1233 12.9271C52.3822 12.2681 52.7703 11.6674 53.2648 11.1607C53.7593 10.6539 54.3502 10.2512 55.0027 9.97621C55.6552 9.70125 56.3561 9.55958 57.0641 9.55958C57.7721 9.55958 58.4731 9.70125 59.1256 9.97621C59.7781 10.2512 60.3689 10.6539 60.8634 11.1607C61.3579 11.6674 61.746 12.2681 62.0049 12.9271C62.2638 13.5861 62.3882 14.2903 62.3708 14.9981V22.1281L58.7435 22.1185ZM122.165 22.1185V10.2683H125.786V22.1281L122.165 22.1185ZM121.797 7.19066C121.796 6.61146 122.026 6.0556 122.435 5.64514C122.843 5.23469 123.398 5.0032 123.977 5.00151C124.411 4.99961 124.835 5.12639 125.196 5.36578C125.557 5.60518 125.84 5.9464 126.007 6.34625C126.174 6.74609 126.218 7.18655 126.135 7.61184C126.052 8.0371 125.844 8.42805 125.538 8.73518C125.232 9.04229 124.842 9.25181 124.417 9.33702C123.992 9.42229 123.552 9.37949 123.152 9.21406C122.751 9.0487 122.408 8.76805 122.167 8.4079C121.926 8.04766 121.797 7.62405 121.797 7.19066ZM0.246772 15.9984C0.246772 11.7549 1.93248 7.68529 4.93306 4.6847C7.93364 1.68412 12.0033 -0.00158691 16.2468 -0.00158691C20.4902 -0.00158691 24.5599 1.68412 27.5605 4.6847C30.561 7.68529 32.2468 11.7549 32.2468 15.9984V30.5523L30.3293 30.1976V15.9984C30.324 13.0267 29.3786 10.1329 27.6285 7.73109C25.8785 5.32934 23.4133 3.54288 20.5861 2.62741C17.7589 1.71194 14.7145 1.71441 11.8889 2.63447C9.06319 3.55453 6.60099 5.34501 4.8548 7.74958C3.10862 10.1541 2.16796 13.0496 2.1675 16.0213C2.16703 18.993 3.10677 21.8887 4.8522 24.2938C6.59763 26.6989 9.05927 28.4902 11.8846 29.4112C14.7101 30.3321 17.7545 30.3356 20.5819 29.4209L23.9312 30.0601C21.4922 31.3929 18.7483 32.0678 15.9693 32.0182C13.1905 31.9687 10.4723 31.1965 8.08244 29.7776C5.69256 28.3586 3.71328 26.342 2.33937 23.9259C0.965468 21.5099 0.244278 18.7777 0.246772 15.9984ZM27.4114 29.6543V15.9984C27.4119 13.5952 26.6384 11.2557 25.2053 9.32638C23.7722 7.39711 21.7559 5.9807 19.455 5.28693C17.1541 4.59316 14.6909 4.65892 12.4301 5.47448C10.1695 6.29003 8.23165 7.81201 6.90359 9.81501C5.57552 11.818 4.92788 14.1954 5.0566 16.5953C5.18531 18.995 6.08352 21.2896 7.61821 23.139C9.15287 24.9885 11.2425 26.2945 13.5773 26.8635C15.9123 27.4326 18.3684 27.2345 20.5819 26.2986V28.3408C17.9625 29.261 15.1183 29.3242 12.4606 28.5211C9.80303 27.7181 7.46968 26.0904 5.7982 23.8736C4.12674 21.6568 3.20377 18.9657 3.1628 16.1897C3.12184 13.4137 3.965 10.6965 5.57033 8.43133C7.17566 6.16617 9.45991 4.47038 12.0927 3.58924C14.7255 2.7081 17.5704 2.68732 20.2158 3.52988C22.8612 4.37243 25.17 6.03465 26.8083 8.27613C28.4465 10.5176 29.3293 13.2221 29.3289 15.9984V30.009L27.4114 29.6543ZM24.5352 29.1014V15.9984C24.5337 14.1721 23.9263 12.3977 22.8082 10.9536C21.6901 9.5095 20.1245 8.4771 18.3567 8.01822C16.5889 7.55932 14.7189 7.69989 13.0395 8.4179C11.3602 9.13589 9.96655 10.3908 9.07695 11.9858C8.18731 13.5809 7.85201 15.4261 8.12358 17.2321C8.39519 19.0382 9.25823 20.7032 10.5776 21.9661C11.8969 23.229 13.5981 24.0185 15.4142 24.2109C17.2305 24.4033 19.0592 23.9877 20.6139 23.0293V25.1929C18.6213 26.1389 16.3753 26.4121 14.2141 25.9712C12.0529 25.5304 10.0933 24.3995 8.63039 22.7487C7.16752 21.0979 6.28043 19.0165 6.10269 16.818C5.92496 14.6194 6.46622 12.4226 7.64496 10.5582C8.82375 8.69389 10.5761 7.26287 12.6385 6.48062C14.7009 5.69838 16.9616 5.60721 19.0802 6.22087C21.1989 6.83453 23.0609 8.11981 24.3859 9.88317C25.7109 11.6466 26.4273 13.7927 26.4271 15.9984V29.4689L24.5352 29.1014ZM21.6238 28.5613V15.9984C21.6231 14.723 21.1672 13.4898 20.338 12.5208C19.5088 11.5517 18.3609 10.9106 17.1009 10.7129C15.8409 10.515 14.5517 10.7736 13.4656 11.442C12.3793 12.1103 11.5674 13.1445 11.176 14.3583C10.7846 15.5721 10.8394 16.8858 11.3306 18.0629C11.8219 19.2398 12.7172 20.2028 13.8553 20.7782C14.9935 21.3537 16.2997 21.5039 17.5388 21.2018C18.7778 20.8997 19.8684 20.1651 20.6139 19.1304V21.8181C19.3057 22.8021 17.7035 23.3157 16.0669 23.2756C14.4304 23.2354 12.8553 22.6439 11.5969 21.5969C10.3385 20.5497 9.47055 19.1085 9.13351 17.5065C8.79647 15.9045 9.01023 14.2357 9.74007 12.7704C10.4699 11.305 11.6732 10.129 13.1548 9.43285C14.6365 8.73669 16.3097 8.56126 17.9036 8.93478C19.4974 9.30838 20.9185 10.2092 21.9365 11.4912C22.9545 12.7732 23.5098 14.3613 23.5125 15.9984V28.9256L21.6238 28.5613Z" fill="white"/>
</g>
</g>
<defs>
<clipPath id="clip0_2_1748">
<rect width="126.4" height="32" fill="white" transform="translate(0.25)"/>
</clipPath>
</defs>
</svg>
