<svg width="140" height="20" viewBox="0 0 140 20" fill="none" xmlns="http://www.w3.org/2000/svg">
<g clip-path="url(#clip0_2_1700)">
<path d="M9.00778 3.55371C10.0837 3.55371 11.0652 3.70943 11.9523 4.02089C12.8489 4.33232 13.6559 4.73817 14.3731 5.23835C15.0998 5.7291 15.7369 6.23875 16.2843 6.7673C16.5863 7.0504 16.86 7.32885 17.1054 7.60255C17.3507 7.87625 17.5867 8.14995 17.8131 8.4236C18.0208 8.14995 18.2331 7.88565 18.4502 7.63085C18.6767 7.3666 18.9598 7.0787 19.2997 6.7673C20.1207 5.96505 21.14 5.2289 22.3575 4.55883C23.5844 3.88874 25.0048 3.55371 26.6188 3.55371C28.1288 3.55371 29.502 3.92179 30.7383 4.65793C31.9841 5.38465 32.9703 6.36145 33.697 7.58835C34.4331 8.81525 34.8011 10.1744 34.8011 11.6655C34.8011 12.7982 34.5888 13.8597 34.1641 14.8507C33.7395 15.8322 33.1542 16.6958 32.4086 17.4414C31.6631 18.1775 30.7949 18.758 29.8039 19.1828C28.813 19.5979 27.7511 19.8055 26.6188 19.8055C25.5427 19.8055 24.5517 19.6547 23.6458 19.3525C22.7491 19.0411 21.9376 18.6449 21.2108 18.1635C20.4935 17.6822 19.8613 17.1866 19.3137 16.6769C19.0023 16.3656 18.7238 16.073 18.4784 15.7994C18.2428 15.5163 18.0208 15.2377 17.8131 14.9641C17.5773 15.2377 17.3366 15.5163 17.0912 15.7994C16.8458 16.0825 16.5721 16.375 16.2701 16.6769C15.7322 17.1866 15.0998 17.6822 14.3731 18.1635C13.6559 18.6354 12.8489 19.0271 11.9523 19.3385C11.0652 19.6499 10.0837 19.8055 9.00778 19.8055C7.47883 19.8055 6.09622 19.4422 4.85984 18.7154C3.62348 17.9887 2.63724 17.012 1.90109 15.7851C1.16495 14.5487 0.796875 13.1755 0.796875 11.6655C0.796875 10.5424 1.0045 9.4948 1.41977 8.5227C1.84447 7.5412 2.42963 6.6776 3.17518 5.932C3.93022 5.18645 4.80322 4.60602 5.7942 4.19077C6.79458 3.76608 7.86578 3.55371 9.00778 3.55371ZM4.70412 11.6655C4.70412 12.4488 4.8976 13.1615 5.28454 13.8031C5.6715 14.445 6.19058 14.9546 6.84177 15.332C7.49297 15.7097 8.21498 15.8985 9.00778 15.8985C9.89488 15.8985 10.7113 15.7002 11.4569 15.3037C12.2024 14.9075 12.8961 14.4073 13.5379 13.8031C13.9437 13.4163 14.2929 13.0435 14.5855 12.6848C14.878 12.3262 15.1329 11.9863 15.3499 11.6655C15.1234 11.3635 14.8545 11.0285 14.543 10.6604C14.241 10.2829 13.906 9.9242 13.5379 9.58445C12.9339 8.98985 12.2496 8.48965 11.4852 8.08385C10.7207 7.6686 9.89488 7.46095 9.00778 7.46095C8.21498 7.46095 7.49297 7.65445 6.84177 8.0414C6.19058 8.4189 5.6715 8.92855 5.28454 9.5703C4.8976 10.2027 4.70412 10.9011 4.70412 11.6655ZM30.8657 11.6655C30.8657 10.9011 30.6721 10.2027 30.2853 9.5703C29.9076 8.92855 29.398 8.4189 28.7564 8.0414C28.1145 7.65445 27.4021 7.46095 26.6188 7.46095C26.0146 7.46095 25.439 7.55535 24.8916 7.7441C24.3443 7.93285 23.8298 8.18765 23.3485 8.50855C22.8765 8.82945 22.4423 9.18805 22.0461 9.58445C21.6213 9.98085 21.2485 10.3867 20.9277 10.802C20.6069 11.2078 20.3755 11.4956 20.2341 11.6655C20.4698 11.9957 20.7343 12.3402 21.0269 12.699C21.3194 13.0481 21.659 13.4163 22.0461 13.8031C22.6783 14.4073 23.3673 14.9075 24.1129 15.3037C24.8679 15.7002 25.7032 15.8985 26.6188 15.8985C27.4021 15.8985 28.1145 15.7097 28.7564 15.332C29.398 14.9546 29.9076 14.445 30.2853 13.8031C30.6721 13.1615 30.8657 12.4488 30.8657 11.6655Z" fill="white"/>
<path d="M49.9641 0.90909V19.7153H46.5573V0.90909H49.9641ZM56.8309 11.4508V19.7153H53.5064V5.61065H56.6834V8.00735H56.8489C57.1734 7.2176 57.6909 6.5901 58.4009 6.1249C59.1169 5.6596 60.0014 5.42695 61.0544 5.42695C62.0279 5.42695 62.8759 5.63515 63.5984 6.0514C64.3269 6.4677 64.8898 7.0707 65.2878 7.8604C65.6918 8.65015 65.8909 9.6082 65.8848 10.7346V19.7153H62.5604V11.2488C62.5604 10.3061 62.3159 9.5684 61.8259 9.0358C61.3424 8.5032 60.6719 8.2369 59.8149 8.2369C59.2334 8.2369 58.7164 8.36545 58.2629 8.6226C57.8164 8.87355 57.4644 9.2378 57.2069 9.7153C56.9559 10.1928 56.8309 10.7713 56.8309 11.4508ZM76.4079 5.61065V8.1818H68.0704V5.61065H76.4079ZM70.1544 19.7153V4.27915C70.1544 3.33028 70.3504 2.54054 70.7424 1.91C71.1404 1.27946 71.6729 0.80808 72.3399 0.495864C73.0074 0.18365 73.7479 0.0275552 74.5624 0.0275552C75.1379 0.0275552 75.6489 0.0734545 76.0959 0.165306C76.5429 0.257131 76.8733 0.33977 77.0873 0.413224L76.4264 2.9844C76.2859 2.94154 76.1084 2.89868 75.8939 2.85583C75.6799 2.80686 75.4409 2.78238 75.1774 2.78238C74.5594 2.78238 74.1218 2.93236 73.8643 3.23232C73.6133 3.52616 73.4879 3.94857 73.4879 4.49955V19.7153H70.1544ZM79.0114 19.7153V5.61065H82.3354V19.7153H79.0114ZM80.6829 3.60879C80.1559 3.60879 79.7029 3.43434 79.3233 3.08541C78.9438 2.73034 78.7543 2.30485 78.7543 1.80899C78.7543 1.30701 78.9438 0.881535 79.3233 0.532605C79.7029 0.177534 80.1559 0 80.6829 0C81.2154 0 81.6684 0.177534 82.0419 0.532605C82.4214 0.881535 82.6109 1.30701 82.6109 1.80899C82.6109 2.30485 82.4214 2.73034 82.0419 3.08541C81.6684 3.43434 81.2154 3.60879 80.6829 3.60879ZM96.9019 9.33885L93.8714 9.6694C93.7859 9.3633 93.6358 9.0756 93.4213 8.8062C93.2133 8.53685 92.9314 8.31955 92.5764 8.15425C92.2214 7.98895 91.7869 7.9063 91.2724 7.9063C90.5809 7.9063 89.9994 8.0563 89.5279 8.35625C89.0629 8.65625 88.8329 9.045 88.8394 9.5225C88.8329 9.93265 88.9828 10.2663 89.2888 10.5234C89.6013 10.7805 90.1159 10.9917 90.8319 11.157L93.2379 11.6712C94.5724 11.9591 95.5639 12.4151 96.2129 13.0395C96.8679 13.6638 97.1983 14.4811 97.2048 15.4912C97.1983 16.379 96.9384 17.1625 96.4239 17.8419C95.9159 18.5153 95.2088 19.0419 94.3028 19.4214C93.3969 19.801 92.3564 19.9909 91.1809 19.9909C89.4544 19.9909 88.0648 19.6297 87.0118 18.9072C85.9588 18.1786 85.3313 17.1656 85.1293 15.8678L88.3708 15.5555C88.5178 16.192 88.8298 16.6728 89.3074 16.9972C89.7849 17.3218 90.4063 17.4839 91.1713 17.4839C91.9613 17.4839 92.5948 17.3218 93.0723 16.9972C93.5559 16.6728 93.7979 16.2718 93.7979 15.7942C93.7979 15.3902 93.6419 15.0567 93.3294 14.7933C93.0234 14.5301 92.5458 14.3281 91.8969 14.1872L89.4909 13.6821C88.1384 13.4007 87.1373 12.9261 86.4883 12.2589C85.8394 11.5855 85.5179 10.7346 85.5244 9.70615C85.5179 8.8368 85.7539 8.08385 86.2314 7.44715C86.7149 6.8044 87.3854 6.30855 88.2424 5.9596C89.1054 5.6045 90.1004 5.42695 91.2269 5.42695C92.8794 5.42695 94.1803 5.779 95.1293 6.483C96.0844 7.187 96.6754 8.13895 96.9019 9.33885ZM99.9459 19.7153V5.61065H103.27V19.7153H99.9459ZM101.617 3.60879C101.09 3.60879 100.637 3.43434 100.258 3.08541C99.8783 2.73034 99.6884 2.30485 99.6884 1.80899C99.6884 1.30701 99.8783 0.881535 100.258 0.532605C100.637 0.177534 101.09 0 101.617 0C102.149 0 102.603 0.177534 102.976 0.532605C103.355 0.881535 103.545 1.30701 103.545 1.80899C103.545 2.30485 103.355 2.73034 102.976 3.08541C102.603 3.43434 102.149 3.60879 101.617 3.60879ZM112.84 19.9909C111.432 19.9909 110.223 19.6816 109.213 19.0634C108.209 18.445 107.435 17.5911 106.89 16.5013C106.351 15.4056 106.082 14.1444 106.082 12.7182C106.082 11.2856 106.357 10.0214 106.908 8.9256C107.459 7.8237 108.237 6.96665 109.241 6.35445C110.251 5.73615 111.445 5.42695 112.822 5.42695C113.967 5.42695 114.98 5.6382 115.861 6.0606C116.749 6.4769 117.456 7.06765 117.983 7.83285C118.509 8.59195 118.809 9.4796 118.883 10.4958H115.705C115.577 9.8163 115.271 9.25005 114.787 8.79705C114.31 8.3379 113.67 8.10835 112.868 8.10835C112.188 8.10835 111.592 8.292 111.077 8.6593C110.563 9.0205 110.162 9.54085 109.874 10.2204C109.593 10.8999 109.452 11.714 109.452 12.6629C109.452 13.624 109.593 14.4507 109.874 15.1424C110.156 15.8279 110.551 16.3575 111.059 16.7308C111.573 17.0982 112.176 17.2819 112.868 17.2819C113.358 17.2819 113.795 17.1901 114.181 17.0063C114.573 16.8167 114.9 16.5441 115.164 16.1891C115.427 15.8341 115.607 15.4026 115.705 14.8943H118.883C118.803 15.8923 118.509 16.7768 118.001 17.5483C117.493 18.3132 116.801 18.9134 115.926 19.3479C115.05 19.7765 114.022 19.9909 112.84 19.9909ZM125.671 20C124.777 20 123.972 19.8408 123.256 19.5224C122.546 19.1981 121.982 18.7206 121.566 18.09C121.156 17.4594 120.951 16.6821 120.951 15.7576C120.951 14.9616 121.098 14.3036 121.392 13.7832C121.686 13.2628 122.087 12.8466 122.595 12.5344C123.103 12.2222 123.675 11.9865 124.312 11.8273C124.955 11.662 125.619 11.5427 126.305 11.4692C127.131 11.3835 127.801 11.307 128.316 11.2396C128.83 11.1662 129.203 11.056 129.436 10.909C129.675 10.756 129.794 10.5203 129.794 10.202V10.1469C129.794 9.45515 129.589 8.9195 129.179 8.53995C128.769 8.1604 128.178 7.9706 127.406 7.9706C126.592 7.9706 125.946 8.14815 125.469 8.5032C124.998 8.85825 124.679 9.2776 124.514 9.76125L121.41 9.32045C121.655 8.4634 122.059 7.74715 122.622 7.1717C123.185 6.5901 123.874 6.1555 124.688 5.86775C125.503 5.5739 126.403 5.42695 127.388 5.42695C128.068 5.42695 128.744 5.50655 129.418 5.66575C130.091 5.8249 130.706 6.08815 131.263 6.45545C131.82 6.81665 132.267 7.30945 132.604 7.9339C132.947 8.5583 133.118 9.33885 133.118 10.2754V19.7153H129.923V17.7778H129.812C129.61 18.1694 129.326 18.5368 128.958 18.8797C128.597 19.2164 128.141 19.4888 127.59 19.697C127.045 19.899 126.406 20 125.671 20ZM126.534 17.5574C127.201 17.5574 127.78 17.4258 128.27 17.1625C128.759 16.8932 129.136 16.5382 129.399 16.0972C129.669 15.6566 129.803 15.1761 129.803 14.6557V12.9934C129.699 13.0793 129.522 13.1588 129.27 13.2324C129.026 13.3059 128.75 13.37 128.444 13.4252C128.138 13.4802 127.835 13.5292 127.535 13.572C127.235 13.6148 126.975 13.6517 126.754 13.6821C126.258 13.7495 125.815 13.8597 125.423 14.0129C125.031 14.1659 124.722 14.3801 124.496 14.6557C124.269 14.925 124.156 15.2738 124.156 15.7023C124.156 16.3146 124.379 16.7768 124.826 17.0891C125.273 17.4012 125.842 17.5574 126.534 17.5574ZM139.785 0.90909V19.7153H136.46V0.90909H139.785Z" fill="white"/>
</g>
<defs>
<clipPath id="clip0_2_1700">
<rect width="139" height="20" fill="white" transform="translate(0.796875)"/>
</clipPath>
</defs>
</svg>
