<svg width="147" height="36" viewBox="0 0 147 36" fill="none" xmlns="http://www.w3.org/2000/svg">
<g clip-path="url(#clip0_2_1653)">
<mask id="mask0_2_1653" style="mask-type:luminance" maskUnits="userSpaceOnUse" x="0" y="0" width="147" height="36">
<path d="M146.015 0H0.59375V36H146.015V0Z" fill="white"/>
</mask>
<g mask="url(#mask0_2_1653)">
<mask id="mask1_2_1653" style="mask-type:luminance" maskUnits="userSpaceOnUse" x="0" y="0" width="146" height="36">
<path d="M145.902 0H0.59375V36H145.902V0Z" fill="white"/>
</mask>
<g mask="url(#mask1_2_1653)">
<path fill-rule="evenodd" clip-rule="evenodd" d="M62.2312 16.503C62.5581 15.742 64.0783 13.6787 66.6847 13.6783C68.2047 13.6784 69.2909 14.1127 70.1592 14.8735C71.1366 15.7436 71.5707 17.2641 71.5707 19.2188V27.4735H67.6597V19.4351C67.6597 17.6967 66.7913 16.7193 65.1618 16.7193C64.2934 16.7193 63.5324 16.8282 63.0981 17.1535C62.446 17.5878 62.1207 18.3488 62.1207 19.3262V27.4735H58.3187L58.2729 8.42041H62.0576L62.1223 16.8282L62.2312 16.503ZM10.8048 13.5078H10.8033H10.6959V15.4626L10.5869 15.2447C10.1527 14.5926 8.84849 13.3989 6.67585 13.3989C5.26427 13.3989 3.74375 13.942 2.65743 15.0283C1.78901 15.8967 0.59375 17.5262 0.59375 20.3509C0.59375 25.4556 4.28691 27.303 6.78481 27.303C7.76217 27.303 9.17375 27.0851 10.1527 25.8914C10.3187 25.7255 10.4206 25.497 10.5079 25.3014C10.5352 25.2403 10.561 25.1822 10.5869 25.1304V26.7598C10.5869 27.8461 10.369 28.6056 9.82586 29.1488C9.2827 29.6919 8.41427 30.0172 7.11006 30.0172C5.26427 30.0172 4.28533 29.3652 3.63481 28.713V28.6041H3.52585L1.35322 29.9083L1.24428 30.0172L1.35322 30.1262C2.33059 31.8646 4.72112 32.9509 7.54428 32.9509C8.73954 32.9509 10.369 32.733 11.7806 31.9735C13.6264 30.9961 14.4964 29.2578 14.4964 26.8688V13.5078H14.3874H10.8048ZM10.9138 20.4598C10.9138 21.7641 10.5885 22.7414 10.0454 23.5009C9.50218 24.153 8.74112 24.4782 7.8727 24.4782C5.91796 24.4782 4.83164 22.9578 4.83164 20.4598C4.83164 17.962 6.02691 16.5488 7.8727 16.5488C8.74112 16.5488 9.50218 16.8741 10.0454 17.5262C10.5885 18.0693 10.9138 19.1556 10.9138 20.4583V20.4598ZM26.1694 13.5693H26.0604V21.7167C25.9515 22.5851 24.9741 24.3235 23.0194 24.3235C21.3899 24.3235 20.5215 23.3462 20.5215 21.6078V13.4604H20.4126L17.1536 13.5693H17.0447V21.8241C17.0447 23.6699 17.4788 25.083 18.2399 26.0604C19.1084 27.0378 20.3036 27.472 21.9331 27.472C22.6942 27.472 23.4536 27.2541 24.2146 26.9289C25.301 26.2767 26.1694 25.1904 26.4962 23.9967V27.2556H29.8641V13.5693H26.1709H26.1694ZM36.2715 16.7193C36.7057 14.7647 38.2263 13.5694 40.3989 13.5694C40.6168 13.5694 40.9417 13.5696 41.4836 13.6783H41.5925V16.9372H40.7241C38.0084 16.9372 36.4878 17.9146 36.1626 20.0872V27.4735H32.3604V13.6783H36.1626V17.2625L36.2715 16.7193ZM52.0215 13.5693V21.7167C51.9126 22.5851 50.9352 24.3235 48.9805 24.3235C47.351 24.3235 46.4825 23.3462 46.4825 21.6078V13.4604H46.3736L43.1146 13.5693H43.0057V21.8241C43.0057 23.6699 43.4399 25.083 44.201 26.0604C45.0694 27.0378 46.2646 27.472 47.8941 27.472C50.392 27.472 51.9126 25.6262 52.3483 24.6473L52.4572 24.322V27.2541H55.9325V27.1451L55.8236 13.5677H52.0215V13.5693ZM79.8285 13.3514C77.4395 13.3514 72.9853 14.8719 72.9853 20.4125C72.9853 22.6941 73.7464 24.5399 75.2669 25.8441C76.4621 26.8215 78.0917 27.4735 79.7211 27.4735C81.3506 27.4735 82.98 26.9304 84.1753 25.8441C85.6959 24.5399 86.4569 22.6941 86.4569 20.4125C86.5659 14.8734 82.1116 13.3514 79.8316 13.3514H79.8285ZM82.7813 20.5996C82.7811 21.9239 82.4496 22.9153 81.8985 23.6889C81.3474 24.3504 80.5738 24.682 79.6912 24.682C77.7049 24.682 76.6011 23.1378 76.6011 20.6004C76.6011 18.063 77.8154 16.6277 79.6912 16.6277C80.5738 16.6277 81.3459 16.9594 81.8985 17.6209C82.4496 18.1719 82.7811 19.2752 82.7813 20.5996ZM92.428 23.0193C92.428 23.9967 92.9715 24.4309 93.949 24.4309L93.9508 24.4357C94.2775 24.4357 94.7113 24.3267 95.146 24.2178H95.2549V27.1499H95.146C94.6024 27.3662 93.7339 27.4752 92.8645 27.4752C91.9942 27.4752 90.9097 27.3662 90.1483 26.7141C89.2783 26.1709 88.8442 24.9757 88.8442 23.3462V16.3941H86.8894V13.353H88.8442V11.193L92.428 10.7461V13.353H94.9264V16.3941H92.428V23.0193ZM102.856 13.1351C101.01 13.1351 99.3805 13.6782 98.1852 14.7645C96.6652 16.0688 95.9038 18.0235 95.9038 20.3035C95.9038 23.8878 98.0764 27.472 102.856 27.472C106.224 27.472 108.288 26.1677 109.156 23.4535V23.3446H105.788V23.4535C105.354 24.322 104.484 24.6488 103.072 24.6488C101.009 24.6488 99.9223 23.6715 99.7045 21.4988V21.3899H109.588V20.7378C109.588 15.8493 107.091 13.1335 102.854 13.1335L102.856 13.1351ZM102.856 15.7419C104.594 15.7419 105.788 16.9372 105.788 18.783V18.8919H99.7063V18.783C100.031 16.8282 101.117 15.7419 102.856 15.7419ZM112.42 8.54191L114.75 8.57033L114.761 27.3662V27.4704H114.652L111.177 27.472L111.068 27.4735V27.3693L111.008 8.54191H112.42Z" fill="white"/>
<path d="M133.269 33.1201H123.124L124.23 2.88013H133.269V33.1201Z" fill="white"/>
<path d="M135.284 0V36L145.902 33.12V2.88L135.284 0ZM138.955 20.5895L138.008 20.7473V15.2211L138.955 15.3789V20.5895Z" fill="white"/>
</g>
</g>
</g>
<defs>
<clipPath id="clip0_2_1653">
<rect width="145.8" height="36" fill="white" transform="translate(0.59375)"/>
</clipPath>
</defs>
</svg>
