<svg width="91" height="24" viewBox="0 0 91 24" fill="none" xmlns="http://www.w3.org/2000/svg">
<g clip-path="url(#clip0_2_1689)">
<mask id="mask0_2_1689" style="mask-type:luminance" maskUnits="userSpaceOnUse" x="0" y="0" width="90" height="24">
<path d="M89.8327 0H0.09375V24H89.8327V0Z" fill="white"/>
</mask>
<g mask="url(#mask0_2_1689)">
<mask id="mask1_2_1689" style="mask-type:luminance" maskUnits="userSpaceOnUse" x="0" y="1" width="90" height="23">
<path d="M0.103149 1.02246H89.8244V23.9999H0.103149V1.02246Z" fill="white"/>
</mask>
<g mask="url(#mask1_2_1689)">
<path fill-rule="evenodd" clip-rule="evenodd" d="M22.7289 13.5576V1.54716C22.7289 1.39377 22.6412 1.26855 22.5327 1.26855H10.1372C10.1161 1.26896 10.0952 1.27359 10.0758 1.28219C10.0565 1.2908 10.039 1.30319 10.0246 1.31864L5.96124 5.43203C5.80681 5.58855 5.88506 5.93708 6.07602 5.93708H16.0819L22.2614 1.80177L17.8058 6.8835V18.32C17.8058 18.5496 17.9873 18.68 18.1157 18.5434L22.6486 13.7809C22.7027 13.7194 22.7315 13.6396 22.7289 13.5576ZM12.8033 23.8432L16.8698 19.7246C17.0242 19.568 16.9459 19.2237 16.756 19.2237H5.22037C5.11289 19.2237 5.0242 19.1037 5.0242 18.9493V6.84072C5.0242 6.61218 4.84054 6.48282 4.71115 6.62058L0.181415 11.3819C0.129396 11.443 0.101552 11.5209 0.103154 11.6011V21.6957C0.103154 22.9103 0.802285 23.8954 1.66837 23.8954H12.6875C12.7315 23.8939 12.7731 23.8751 12.8033 23.8432Z" fill="white"/>
<path d="M44.4938 19.5807H33.1981V1.02246H36.4705V16.5974H44.4917V19.5807H44.4938ZM46.0684 12.8065C46.0684 10.636 46.6423 8.93202 47.7901 7.69758C48.9463 6.4548 50.5136 5.83289 52.4899 5.83289C54.3431 5.83289 55.828 6.38388 56.9425 7.48578C58.0747 8.58036 58.6412 10.0924 58.6412 12.0228C58.6484 12.5347 58.6108 13.0462 58.5286 13.5515H49.2656V14.285C49.2656 15.2138 49.5609 15.9588 50.1515 16.5223C50.7494 17.0858 51.5372 17.3675 52.5129 17.3675C53.2924 17.3675 53.9529 17.1943 54.4934 16.8458C55.0433 16.4899 55.4169 16.0172 55.6131 15.4287H58.7132C58.4263 16.7633 57.7292 17.8319 56.6221 18.6364C55.4743 19.4315 54.1042 19.8291 52.5129 19.8291C50.4959 19.8291 48.917 19.203 47.7766 17.9519C46.637 16.6757 46.0663 14.9602 46.0663 12.8065H46.0684ZM49.2667 11.1286V11.3894H55.516V11.0284C55.516 10.1999 55.2332 9.53622 54.6677 9.03948C54.1094 8.53446 53.3675 8.28192 52.4409 8.28192C51.4892 8.28192 50.7223 8.5428 50.14 9.06456C49.5578 9.58626 49.2667 10.275 49.2667 11.1286ZM60.461 15.6896C60.461 14.381 60.8918 13.3574 61.7528 12.6197C62.6222 11.8819 63.8114 11.5136 65.3216 11.5136H69.0488V10.6183C69.0488 9.07704 68.2412 8.307 66.6248 8.307C65.0336 8.307 64.1768 8.98524 64.0538 10.3449H60.9902C61.0976 8.91948 61.6634 7.81344 62.6876 7.02666C63.7136 6.23046 65.0798 5.83289 66.7844 5.83289C67.8176 5.83289 68.7116 5.98942 69.4664 6.30558C70.2218 6.61968 70.7876 7.04646 71.1638 7.58592C71.837 8.55534 72.173 9.58314 72.173 10.6684V17.3435H73.9322V19.5807H71.3612C70.6724 19.5807 70.1684 19.4555 69.848 19.2082C69.536 18.9588 69.3356 18.5654 69.245 18.027L69.221 17.4677H69.0488C68.762 18.1804 68.2244 18.7511 67.4366 19.1831C66.6572 19.6141 65.7596 19.8301 64.7426 19.8301C63.431 19.8301 62.3894 19.4607 61.6184 18.723C60.8462 17.9769 60.461 16.9658 60.461 15.6896ZM63.6116 15.1303V15.7397C63.6116 16.2781 63.7994 16.6892 64.1768 16.971C64.5632 17.2527 65.087 17.3926 65.7518 17.3926C66.752 17.3926 67.5518 17.0951 68.1506 16.4983C68.7494 15.893 69.0476 15.0979 69.0476 14.1119V13.5275H65.8256C65.1284 13.5275 64.583 13.6767 64.1894 13.9741C63.8036 14.2642 63.6116 14.6503 63.6116 15.1303ZM79.4438 23.8319H76.3304V6.09378H79.0748L79.4432 8.48022H79.6514C80.0486 7.65756 80.6888 6.9765 81.485 6.5289C82.2884 6.06456 83.207 5.83289 84.2396 5.83289C85.9556 5.83289 87.2918 6.44226 88.2512 7.66002C89.2196 8.87778 89.7038 10.5766 89.7038 12.7564C89.7038 14.9446 89.2196 16.6517 88.2512 17.8778C87.2834 19.0955 85.9472 19.7039 84.2408 19.7039C83.1422 19.7039 82.1948 19.4732 81.3986 19.0089C80.6204 18.5644 80.0078 17.8797 79.6514 17.0576H79.4432L79.4438 23.8319ZM83.1224 17.1327C84.1718 17.1327 84.992 16.8541 85.583 16.299C86.1818 15.7355 86.48 14.9529 86.48 13.9501V11.5877C86.48 10.5932 86.1902 9.81378 85.6076 9.25026C85.034 8.6868 84.2168 8.4051 83.159 8.4051C82.0358 8.4051 81.1334 8.7411 80.453 9.4131C79.7798 10.084 79.4438 10.9783 79.4438 12.0979V13.4399C79.4438 14.5585 79.7798 15.4538 80.453 16.1247C81.125 16.7957 82.0154 17.1317 83.1224 17.1317V17.1327Z" fill="white"/>
</g>
</g>
</g>
<defs>
<clipPath id="clip0_2_1689">
<rect width="90" height="24" fill="white" transform="translate(0.09375)"/>
</clipPath>
</defs>
</svg>
